<?xml version="1.0" encoding="UTF-8" standalone="no"?>
<!-- Created with Inkscape (http://www.inkscape.org/) -->

<svg
   xmlns:dc="http://purl.org/dc/elements/1.1/"
   xmlns:cc="http://creativecommons.org/ns#"
   xmlns:rdf="http://www.w3.org/1999/02/22-rdf-syntax-ns#"
   xmlns:svg="http://www.w3.org/2000/svg"
   xmlns="http://www.w3.org/2000/svg"
   xmlns:sodipodi="http://sodipodi.sourceforge.net/DTD/sodipodi-0.dtd"
   xmlns:inkscape="http://www.inkscape.org/namespaces/inkscape"
   width="48pt"
   height="48pt"
   viewBox="0 0 16.933334 16.933333"
   version="1.1"
   id="svg979"
   inkscape:version="0.92.4 (5da689c313, 2019-01-14)"
   sodipodi:docname="6 - Haystack.svg"
   inkscape:export-filename="E:\TR Design Studio Creative\Project Design\TR Creative Design\Icon Design\Project Hiring\Icon Icons\Project - 001\001 - Agriculture And Farming\Flat\Export\6 - Haystack.png"
   inkscape:export-xdpi="768"
   inkscape:export-ydpi="768">
  <defs
     id="defs973" />
  <sodipodi:namedview
     id="base"
     pagecolor="#ffffff"
     bordercolor="#666666"
     borderopacity="1.0"
     inkscape:pageopacity="0.0"
     inkscape:pageshadow="2"
     inkscape:zoom="6.0435533"
     inkscape:cx="32"
     inkscape:cy="32"
     inkscape:document-units="pt"
     inkscape:current-layer="layer1"
     showgrid="false"
     units="pt"
     inkscape:window-width="1366"
     inkscape:window-height="716"
     inkscape:window-x="-8"
     inkscape:window-y="-8"
     inkscape:window-maximized="1"
     inkscape:snap-bbox="true"
     inkscape:bbox-nodes="true"
     inkscape:snap-nodes="false"
     showguides="false">
    <inkscape:grid
       type="xygrid"
       id="grid1526" />
    <sodipodi:guide
       position="0.97013909,15.963209"
       orientation="56.666615,0"
       id="guide1528"
       inkscape:locked="false" />
    <sodipodi:guide
       position="0.97013909,0.97016731"
       orientation="0,56.666667"
       id="guide1530"
       inkscape:locked="false" />
    <sodipodi:guide
       position="15.963195,0.97016731"
       orientation="-56.666615,0"
       id="guide1532"
       inkscape:locked="false" />
    <sodipodi:guide
       position="15.963195,15.963209"
       orientation="0,-56.666667"
       id="guide1534"
       inkscape:locked="false" />
  </sodipodi:namedview>
  <metadata
     id="metadata976">
    <rdf:RDF>
      <cc:Work
         rdf:about="">
        <dc:format>image/svg+xml</dc:format>
        <dc:type
           rdf:resource="http://purl.org/dc/dcmitype/StillImage" />
        <dc:title></dc:title>
      </cc:Work>
    </rdf:RDF>
  </metadata>
  <g
     inkscape:label="Layer 1"
     inkscape:groupmode="layer"
     id="layer1"
     transform="translate(0,-280.06668)">
    <g
       transform="matrix(1.231844,0,0,1.231844,54.878555,-42.383258)"
       style="display:inline;stroke-width:0.81179112"
       id="g1533">
      <path
         inkscape:connector-curvature="0"
         id="path1477"
         d="m -38.005859,263.53516 c -0.411029,0.0964 -0.777859,0.29844 -1.126953,0.5 -1.836637,1.05486 -2.943565,2.4341 -3.605469,4.04101 -0.662219,1.60767 -0.890508,3.43575 -1.023438,5.42969 a 0.26460996,0.26460996 0 0 0 0.263672,0.2832 h 11.642578 a 0.26460996,0.26460996 0 0 0 0.263672,-0.2832 c -0.266725,-4.00089 -1.266152,-7.63534 -5.0625,-9.80469 a 0.26460996,0.26460996 0 0 0 -0.01367,-0.006 c -0.46705,-0.23485 -0.926862,-0.25656 -1.33789,-0.16015 z"
         style="color:#000000;font-style:normal;font-variant:normal;font-weight:normal;font-stretch:normal;font-size:medium;line-height:normal;font-family:sans-serif;font-variant-ligatures:normal;font-variant-position:normal;font-variant-caps:normal;font-variant-numeric:normal;font-variant-alternates:normal;font-feature-settings:normal;text-indent:0;text-align:start;text-decoration:none;text-decoration-line:none;text-decoration-style:solid;text-decoration-color:#000000;letter-spacing:normal;word-spacing:normal;text-transform:none;writing-mode:lr-tb;direction:ltr;text-orientation:mixed;dominant-baseline:auto;baseline-shift:baseline;text-anchor:start;white-space:normal;shape-padding:0;clip-rule:nonzero;display:inline;overflow:visible;visibility:visible;opacity:1;isolation:auto;mix-blend-mode:normal;color-interpolation:sRGB;color-interpolation-filters:linearRGB;solid-color:#000000;solid-opacity:1;vector-effect:none;fill:#ffe880;fill-opacity:1;fill-rule:nonzero;stroke:none;stroke-width:0.42957306;stroke-linecap:round;stroke-linejoin:round;stroke-miterlimit:4;stroke-dasharray:none;stroke-dashoffset:0;stroke-opacity:1;color-rendering:auto;image-rendering:auto;shape-rendering:auto;text-rendering:auto;enable-background:accumulate" />
      <path
         inkscape:connector-curvature="0"
         id="path998"
         transform="matrix(0.26458333,0,0,0.26458333,0,284.3)"
         d="m -133.82617,-78.3125 v 0.002 a 1.0001006,1.0001006 0 0 0 -0.53125,0.197266 c -1.90098,1.378582 -2.78474,2.741437 -3.26367,4.636719 a 1.0008135,1.0008135 0 1 0 1.9414,0.486328 c 0.41107,-1.626671 0.80847,-2.282011 2.4961,-3.50586 a 1.0001006,1.0001006 0 0 0 -0.64258,-1.816406 z m -19.95313,3.455078 a 1.0001006,1.0001006 0 0 0 -0.6875,1.720703 c 1.17172,1.167799 1.77079,2.382864 2.22266,3.587891 a 1.0009293,1.0009293 0 1 0 1.875,-0.701172 c -0.50416,-1.344416 -1.26,-2.88196 -2.6875,-4.304688 a 1.0001006,1.0001006 0 0 0 -0.72266,-0.302734 z m 8.54102,2.074219 a 1.0001006,1.0001006 0 0 0 -0.75977,0.369141 c -0.41321,0.492434 -0.62343,1.108068 -0.62109,1.662109 0.002,0.554041 0.17519,1.029828 0.36133,1.439453 a 1.0001006,1.0001006 0 1 0 1.8164,-0.828125 c -0.12548,-0.275906 -0.1772,-0.491355 -0.17773,-0.619141 -5.4e-4,-0.127748 0.009,-0.194148 0.15625,-0.36914 a 1.0001006,1.0001006 0 0 0 -0.77539,-1.654297 z m 7.27148,4.318359 a 1.0001006,1.0001006 0 0 0 -0.80468,1.521485 c 0.45527,0.767282 0.81222,1.564825 0.84765,2.265625 a 1.0001006,1.0001006 0 1 0 1.99414,-0.103516 c -0.0631,-1.247206 -0.60466,-2.308003 -1.12304,-3.181641 a 1.0001006,1.0001006 0 0 0 -0.91407,-0.501953 z m 4.24024,1.75586 a 1.0001006,1.0001006 0 0 0 -0.0996,0.002 1.0001006,1.0001006 0 0 0 -0.86328,1.357422 c 0.24499,0.660585 0.47601,1.491674 0.41211,2.177734 a 1.0001006,1.0001006 0 1 0 1.98632,0.185547 c 0.11297,-1.213039 -0.24162,-2.296729 -0.52343,-3.056641 a 1.0001006,1.0001006 0 0 0 -0.91211,-0.666015 z m -6.6836,1.78125 a 1.0001006,1.0001006 0 0 0 -0.92382,0.746093 c -0.30622,1.101657 0.21686,2.016388 0.52539,2.515625 a 1.0001006,1.0001006 0 1 0 1.69726,-1.046875 c -0.26468,-0.428296 -0.3693,-0.669833 -0.29492,-0.9375 a 1.0001006,1.0001006 0 0 0 -1.00391,-1.277343 z m 18.31446,1.695312 a 1.0001006,1.0001006 0 0 0 -0.11133,0.002 1.0001006,1.0001006 0 0 0 -0.36133,0.08789 c -1.84405,0.827112 -3.89435,1.911 -5.23437,3.707031 a 1.0001006,1.0001006 0 1 0 1.60156,1.195313 c 0.96718,-1.296303 2.71084,-2.289689 4.45117,-3.070313 a 1.0001006,1.0001006 0 0 0 -0.3457,-1.921875 z m -32.39258,0.496094 a 1.0001006,1.0001006 0 0 0 -0.16211,1.986328 c 1.09719,0.201722 2.23185,0.337043 3.36914,0.414062 1.08431,0.73595 2.20536,1.627317 3.54102,2.257813 1.20569,0.57086 2.06116,-1.237734 0.85546,-1.808594 -0.26737,-0.126217 -0.53641,-0.271782 -0.80664,-0.433593 1.10534,-0.07026 2.18058,-0.206796 3.1836,-0.429688 a 1.0024563,1.0024563 0 1 0 -0.43555,-1.957031 c -2.70401,0.600907 -6.22621,0.567873 -9.3457,-0.0059 a 1.0001006,1.0001006 0 0 0 -0.19922,-0.02344 z m -8.74414,1.458984 a 1.0001006,1.0001006 0 0 0 -0.0996,0.0039 1.0001006,1.0001006 0 0 0 -0.27344,1.925782 c 1.6741,0.689537 2.88608,1.423686 3.58789,2.40625 a 1.0001006,1.0001006 0 1 0 1.625,-1.166016 c -1.04906,-1.468686 -2.64083,-2.340274 -4.45117,-3.085937 a 1.0001006,1.0001006 0 0 0 -0.38867,-0.08398 z m 20.07031,7.804688 a 1.0001006,1.0001006 0 0 0 -0.01,0.002 1.0001006,1.0001006 0 0 0 -0.95898,0.826172 c -0.13999,0.719773 -0.10212,1.403103 -0.0371,2.023437 a 1.0001006,1.0001006 0 1 0 1.98438,-0.207031 c -0.0567,-0.540132 -0.0642,-1.023137 0.0156,-1.433594 a 1.0001006,1.0001006 0 0 0 -0.99414,-1.210937 z m -10.83594,0.943359 a 1.0001006,1.0001006 0 0 0 -0.0918,0.002 1.0001006,1.0001006 0 0 0 -0.79688,0.496094 c -0.44444,0.739502 -0.91871,1.647056 -0.97461,2.738281 a 1.0015857,1.0015857 0 1 0 2,0.103516 c 0.0276,-0.537902 0.31497,-1.183562 0.69531,-1.816406 a 1.0001006,1.0001006 0 0 0 -0.83203,-1.523438 z m 19.3086,0.798828 v 0.002 c -0.95418,0.003 -1.36274,1.212434 -0.60547,1.792969 0.40754,0.326494 0.80382,0.731012 1.20117,1.160156 -0.87433,0.03106 -1.75018,0.118948 -2.61914,0.300782 a 1.0039987,1.0039987 0 1 0 0.41406,1.964843 c 2.97566,-0.622677 6.45031,0.03835 9.83203,0.25 a 1.0001006,1.0001006 0 1 0 0.125,-1.992187 c -1.57187,-0.0985 -3.25706,-0.332775 -4.98632,-0.457031 -0.77995,-0.862008 -1.62391,-1.918587 -2.7129,-2.791016 -0.18258,-0.150803 -0.41161,-0.233492 -0.64843,-0.230469 z m -23.27735,3.466797 a 1.0001006,1.0001006 0 0 0 -0.10156,0.0039 1.0001006,1.0001006 0 0 0 -0.88672,0.789063 c -0.10541,0.463899 -0.17002,0.990164 -0.11719,1.550781 a 1.0001006,1.0001006 0 1 0 1.98633,-0.191406 c -0.0265,-0.278551 0.008,-0.596079 0.0801,-0.916016 a 1.0001006,1.0001006 0 0 0 -0.96094,-1.236328 z m 6.02344,0.16211 a 1.0001006,1.0001006 0 0 0 -0.10937,0.0039 1.0001006,1.0001006 0 0 0 -0.85547,0.693359 c -0.15379,0.460611 -0.35388,1.065171 -0.26563,1.794922 a 1.0001697,1.0001697 0 1 0 1.98633,-0.236328 c -0.0299,-0.246803 0.0319,-0.493378 0.17578,-0.923828 a 1.0001006,1.0001006 0 0 0 -0.93164,-1.332031 z"
         style="color:#000000;font-style:normal;font-variant:normal;font-weight:normal;font-stretch:normal;font-size:medium;line-height:normal;font-family:sans-serif;font-variant-ligatures:normal;font-variant-position:normal;font-variant-caps:normal;font-variant-numeric:normal;font-variant-alternates:normal;font-feature-settings:normal;text-indent:0;text-align:start;text-decoration:none;text-decoration-line:none;text-decoration-style:solid;text-decoration-color:#000000;letter-spacing:normal;word-spacing:normal;text-transform:none;writing-mode:lr-tb;direction:ltr;text-orientation:mixed;dominant-baseline:auto;baseline-shift:baseline;text-anchor:start;white-space:normal;shape-padding:0;clip-rule:nonzero;display:inline;overflow:visible;visibility:visible;opacity:1;isolation:auto;mix-blend-mode:normal;color-interpolation:sRGB;color-interpolation-filters:linearRGB;solid-color:#000000;solid-opacity:1;vector-effect:none;fill:#febe40;fill-opacity:1;fill-rule:nonzero;stroke:none;stroke-width:1.6235832;stroke-linecap:round;stroke-linejoin:round;stroke-miterlimit:4;stroke-dasharray:none;stroke-dashoffset:0;stroke-opacity:1;color-rendering:auto;image-rendering:auto;shape-rendering:auto;text-rendering:auto;enable-background:accumulate" />
      <path
         inkscape:connector-curvature="0"
         id="path1480"
         d="m -37.525035,263.48154 c -0.165667,-0.002 -0.326973,0.0171 -0.481108,0.0532 v 5.3e-4 c -0.41103,0.0964 -0.77797,0.29815 -1.127064,0.49971 -0.986039,0.56633 -1.759921,1.2269 -2.369365,1.96526 0.389787,-0.32363 0.823888,-0.62714 1.311031,-0.90693 0.349094,-0.20156 0.716034,-0.40331 1.127064,-0.49971 v -5.3e-4 c 0.411028,-0.0964 0.870853,-0.0747 1.337903,0.1602 a 0.26460995,0.26460995 0 0 1 0.01394,0.006 c 3.549576,2.02834 4.653608,5.33749 5.000212,9.02943 h 0.856795 a 0.26460995,0.26460995 0 0 0 0.263551,-0.28319 c -0.266726,-4.00089 -1.265875,-7.63522 -5.062225,-9.80457 a 0.26460995,0.26460995 0 0 0 -0.01394,-0.006 c -0.291906,-0.14678 -0.580686,-0.20996 -0.856794,-0.21343 z"
         style="color:#000000;font-style:normal;font-variant:normal;font-weight:normal;font-stretch:normal;font-size:medium;line-height:normal;font-family:sans-serif;font-variant-ligatures:normal;font-variant-position:normal;font-variant-caps:normal;font-variant-numeric:normal;font-variant-alternates:normal;font-feature-settings:normal;text-indent:0;text-align:start;text-decoration:none;text-decoration-line:none;text-decoration-style:solid;text-decoration-color:#000000;letter-spacing:normal;word-spacing:normal;text-transform:none;writing-mode:lr-tb;direction:ltr;text-orientation:mixed;dominant-baseline:auto;baseline-shift:baseline;text-anchor:start;white-space:normal;shape-padding:0;clip-rule:nonzero;display:inline;overflow:visible;visibility:visible;opacity:1;isolation:auto;mix-blend-mode:normal;color-interpolation:sRGB;color-interpolation-filters:linearRGB;solid-color:#000000;solid-opacity:1;vector-effect:none;fill:#febe40;fill-opacity:1;fill-rule:nonzero;stroke:none;stroke-width:0.42957306;stroke-linecap:round;stroke-linejoin:round;stroke-miterlimit:4;stroke-dasharray:none;stroke-dashoffset:0;stroke-opacity:1;color-rendering:auto;image-rendering:auto;shape-rendering:auto;text-rendering:auto;enable-background:accumulate" />
    </g>
  </g>
</svg>
