<?xml version="1.0" encoding="UTF-8" standalone="no"?>
<!-- Created with Inkscape (http://www.inkscape.org/) -->

<svg
   xmlns:dc="http://purl.org/dc/elements/1.1/"
   xmlns:cc="http://creativecommons.org/ns#"
   xmlns:rdf="http://www.w3.org/1999/02/22-rdf-syntax-ns#"
   xmlns:svg="http://www.w3.org/2000/svg"
   xmlns="http://www.w3.org/2000/svg"
   xmlns:sodipodi="http://sodipodi.sourceforge.net/DTD/sodipodi-0.dtd"
   xmlns:inkscape="http://www.inkscape.org/namespaces/inkscape"
   width="48pt"
   height="48pt"
   viewBox="0 0 16.933334 16.933333"
   version="1.1"
   id="svg979"
   inkscape:version="0.92.4 (5da689c313, 2019-01-14)"
   sodipodi:docname="14 - Cow.svg"
   inkscape:export-filename="E:\TR Design Studio Creative\Project Design\TR Creative Design\Icon Design\Project Hiring\Icon Icons\Project - 001\001 - Agriculture And Farming\Flat\Export\13 - Sprout.png"
   inkscape:export-xdpi="768"
   inkscape:export-ydpi="768">
  <defs
     id="defs973" />
  <sodipodi:namedview
     id="base"
     pagecolor="#ffffff"
     bordercolor="#666666"
     borderopacity="1.0"
     inkscape:pageopacity="0.0"
     inkscape:pageshadow="2"
     inkscape:zoom="6.0435533"
     inkscape:cx="32"
     inkscape:cy="32"
     inkscape:document-units="pt"
     inkscape:current-layer="layer1"
     showgrid="false"
     units="pt"
     inkscape:window-width="1366"
     inkscape:window-height="716"
     inkscape:window-x="-8"
     inkscape:window-y="-8"
     inkscape:window-maximized="1"
     inkscape:snap-bbox="true"
     inkscape:bbox-nodes="true"
     inkscape:snap-nodes="false"
     showguides="false">
    <inkscape:grid
       type="xygrid"
       id="grid1526" />
    <sodipodi:guide
       position="0.97013909,15.963209"
       orientation="56.666615,0"
       id="guide1528"
       inkscape:locked="false" />
    <sodipodi:guide
       position="0.97013909,0.97016731"
       orientation="0,56.666667"
       id="guide1530"
       inkscape:locked="false" />
    <sodipodi:guide
       position="15.963195,0.97016731"
       orientation="-56.666615,0"
       id="guide1532"
       inkscape:locked="false" />
    <sodipodi:guide
       position="15.963195,15.963209"
       orientation="0,-56.666667"
       id="guide1534"
       inkscape:locked="false" />
  </sodipodi:namedview>
  <metadata
     id="metadata976">
    <rdf:RDF>
      <cc:Work
         rdf:about="">
        <dc:format>image/svg+xml</dc:format>
        <dc:type
           rdf:resource="http://purl.org/dc/dcmitype/StillImage" />
        <dc:title></dc:title>
      </cc:Work>
    </rdf:RDF>
  </metadata>
  <g
     inkscape:label="Layer 1"
     inkscape:groupmode="layer"
     id="layer1"
     transform="translate(0,-280.06668)">
    <g
       transform="matrix(1.2317742,0,0,1.2317742,-26.470521,-69.505391)"
       style="display:inline;stroke-width:0.81183708"
       id="g2459">
      <path
         inkscape:connector-curvature="0"
         id="path1318"
         d="m 31.005859,292.375 a 0.26460996,0.26460996 0 0 0 -0.261718,0.26953 v 0.35352 a 0.2646485,0.2646485 0 1 0 0.529297,0 v -0.35352 A 0.26460996,0.26460996 0 0 0 31.005859,292.375 Z"
         style="color:#000000;font-style:normal;font-variant:normal;font-weight:normal;font-stretch:normal;font-size:medium;line-height:normal;font-family:sans-serif;font-variant-ligatures:normal;font-variant-position:normal;font-variant-caps:normal;font-variant-numeric:normal;font-variant-alternates:normal;font-feature-settings:normal;text-indent:0;text-align:start;text-decoration:none;text-decoration-line:none;text-decoration-style:solid;text-decoration-color:#000000;letter-spacing:normal;word-spacing:normal;text-transform:none;writing-mode:lr-tb;direction:ltr;text-orientation:mixed;dominant-baseline:auto;baseline-shift:baseline;text-anchor:start;white-space:normal;shape-padding:0;clip-rule:nonzero;display:inline;overflow:visible;visibility:visible;opacity:1;isolation:auto;mix-blend-mode:normal;color-interpolation:sRGB;color-interpolation-filters:linearRGB;solid-color:#000000;solid-opacity:1;vector-effect:none;fill:#455a64;fill-opacity:1;fill-rule:nonzero;stroke:none;stroke-width:0.42959738;stroke-linecap:round;stroke-linejoin:round;stroke-miterlimit:4;stroke-dasharray:none;stroke-dashoffset:0;stroke-opacity:1;color-rendering:auto;image-rendering:auto;shape-rendering:auto;text-rendering:auto;enable-background:accumulate" />
      <path
         inkscape:connector-curvature="0"
         id="path1320"
         d="m 30.285156,292.2832 a 0.26460996,0.26460996 0 0 0 -0.242187,0.16407 l -0.173828,0.40234 a 0.26505217,0.26505217 0 1 0 0.486328,0.21094 l 0.173828,-0.4043 a 0.26460996,0.26460996 0 0 0 -0.244141,-0.37305 z"
         style="color:#000000;font-style:normal;font-variant:normal;font-weight:normal;font-stretch:normal;font-size:medium;line-height:normal;font-family:sans-serif;font-variant-ligatures:normal;font-variant-position:normal;font-variant-caps:normal;font-variant-numeric:normal;font-variant-alternates:normal;font-feature-settings:normal;text-indent:0;text-align:start;text-decoration:none;text-decoration-line:none;text-decoration-style:solid;text-decoration-color:#000000;letter-spacing:normal;word-spacing:normal;text-transform:none;writing-mode:lr-tb;direction:ltr;text-orientation:mixed;dominant-baseline:auto;baseline-shift:baseline;text-anchor:start;white-space:normal;shape-padding:0;clip-rule:nonzero;display:inline;overflow:visible;visibility:visible;opacity:1;isolation:auto;mix-blend-mode:normal;color-interpolation:sRGB;color-interpolation-filters:linearRGB;solid-color:#000000;solid-opacity:1;vector-effect:none;fill:#455a64;fill-opacity:1;fill-rule:nonzero;stroke:none;stroke-width:0.42959738;stroke-linecap:round;stroke-linejoin:round;stroke-miterlimit:4;stroke-dasharray:none;stroke-dashoffset:0;stroke-opacity:1;color-rendering:auto;image-rendering:auto;shape-rendering:auto;text-rendering:auto;enable-background:accumulate" />
      <path
         inkscape:connector-curvature="0"
         id="path1322"
         d="m 29.701172,291.85742 a 0.26460996,0.26460996 0 0 0 -0.179688,0.082 l -0.238281,0.24219 a 0.26460996,0.26460996 0 1 0 0.378906,0.36914 l 0.236329,-0.24219 a 0.26460996,0.26460996 0 0 0 -0.197266,-0.45117 z"
         style="color:#000000;font-style:normal;font-variant:normal;font-weight:normal;font-stretch:normal;font-size:medium;line-height:normal;font-family:sans-serif;font-variant-ligatures:normal;font-variant-position:normal;font-variant-caps:normal;font-variant-numeric:normal;font-variant-alternates:normal;font-feature-settings:normal;text-indent:0;text-align:start;text-decoration:none;text-decoration-line:none;text-decoration-style:solid;text-decoration-color:#000000;letter-spacing:normal;word-spacing:normal;text-transform:none;writing-mode:lr-tb;direction:ltr;text-orientation:mixed;dominant-baseline:auto;baseline-shift:baseline;text-anchor:start;white-space:normal;shape-padding:0;clip-rule:nonzero;display:inline;overflow:visible;visibility:visible;opacity:1;isolation:auto;mix-blend-mode:normal;color-interpolation:sRGB;color-interpolation-filters:linearRGB;solid-color:#000000;solid-opacity:1;vector-effect:none;fill:#455a64;fill-opacity:1;fill-rule:nonzero;stroke:none;stroke-width:0.42959738;stroke-linecap:round;stroke-linejoin:round;stroke-miterlimit:4;stroke-dasharray:none;stroke-dashoffset:0;stroke-opacity:1;color-rendering:auto;image-rendering:auto;shape-rendering:auto;text-rendering:auto;enable-background:accumulate" />
      <path
         inkscape:connector-curvature="0"
         id="path2049"
         d="m 31.261719,290.82031 a 0.26460996,0.26460996 0 0 0 -0.07813,0.01 l -1.830078,0.49023 a 0.26460996,0.26460996 0 0 0 -0.183594,0.33985 c 0.18349,0.54539 0.574394,1.02869 1.18164,1.1914 0.543796,0.14571 1.054933,0.035 1.613282,-0.24414 a 0.26460996,0.26460996 0 0 0 0.123047,-0.34961 l -0.595703,-1.2832 a 0.26460996,0.26460996 0 0 0 -0.230469,-0.1543 z"
         style="color:#000000;font-style:normal;font-variant:normal;font-weight:normal;font-stretch:normal;font-size:medium;line-height:normal;font-family:sans-serif;font-variant-ligatures:normal;font-variant-position:normal;font-variant-caps:normal;font-variant-numeric:normal;font-variant-alternates:normal;font-feature-settings:normal;text-indent:0;text-align:start;text-decoration:none;text-decoration-line:none;text-decoration-style:solid;text-decoration-color:#000000;letter-spacing:normal;word-spacing:normal;text-transform:none;writing-mode:lr-tb;direction:ltr;text-orientation:mixed;dominant-baseline:auto;baseline-shift:baseline;text-anchor:start;white-space:normal;shape-padding:0;clip-rule:nonzero;display:inline;overflow:visible;visibility:visible;opacity:1;isolation:auto;mix-blend-mode:normal;color-interpolation:sRGB;color-interpolation-filters:linearRGB;solid-color:#000000;solid-opacity:1;vector-effect:none;fill:#f8c09d;fill-opacity:1;fill-rule:nonzero;stroke:none;stroke-width:0.42959738;stroke-linecap:round;stroke-linejoin:round;stroke-miterlimit:4;stroke-dasharray:none;stroke-dashoffset:0;stroke-opacity:1;color-rendering:auto;image-rendering:auto;shape-rendering:auto;text-rendering:auto;enable-background:accumulate" />
      <path
         inkscape:connector-curvature="0"
         id="path2081"
         transform="matrix(0.26458333,0,0,0.26458333,0,284.3)"
         d="m 118.1543,24.644531 a 1.0001006,1.0001006 0 0 0 -0.29492,0.03711 l -6.81055,1.824218 c -0.28852,0.247565 -0.56101,0.498216 -0.82031,0.751953 a 1.0001006,1.0001006 0 0 0 0.0195,0.560547 c 0.2738,0.813828 0.67504,1.587035 1.19531,2.267579 2.55446,-0.188394 5.60186,-0.946928 6.16406,-0.384766 0.66895,0.668938 0.60228,1.787751 1.02539,2.55664 0.71342,-0.199138 1.4351,-0.487125 2.17969,-0.859374 a 1.0001006,1.0001006 0 0 0 0.46484,-1.320313 l -2.25195,-4.849609 a 1.0001006,1.0001006 0 0 0 -0.87109,-0.583985 z"
         style="opacity:1;vector-effect:none;fill:#ef937e;fill-opacity:1;stroke:none;stroke-width:1.62367404;stroke-linecap:round;stroke-linejoin:round;stroke-miterlimit:4;stroke-dasharray:none;stroke-dashoffset:0;stroke-opacity:1" />
      <path
         sodipodi:nodetypes="ccccccccccccccccccccccccccccccccc"
         inkscape:connector-curvature="0"
         id="path2009"
         d="m 23.574219,287.87109 c -0.07057,0.007 -0.135308,0.0424 -0.179688,0.0977 l -1.058593,1.32422 c -0.03749,0.0465 -0.05814,0.10433 -0.05859,0.16406 v 1.05859 c -5.64e-4,0.14617 0.117499,0.26511 0.263672,0.26563 0,0 1.04144,0.002 2.060546,0.0156 0.168162,0.23774 0.362783,0.42262 0.583985,0.52148 0.0017,0.66287 0.002,1.38853 0.002,2.04883 l -0.236328,0.4707 c -0.08776,0.17577 0.03987,0.3825 0.236328,0.38281 0.441417,5e-5 0.88292,-10e-4 1.322266,0.002 0.12205,4.2e-4 0.228556,-0.0827 0.257812,-0.20118 l 0.265625,-1.05859 c 0.0052,-0.0211 0.0079,-0.0428 0.0078,-0.0645 l -0.002,-1.13086 c 0.815469,0.0581 1.734342,0.0738 2.369141,0.0723 0.0018,1.3e-4 0.888001,-0.0116 1.683594,-0.26562 0.08403,0.21021 0.218089,0.41389 0.455078,0.59766 l 0.244141,1.21679 -0.22461,0.44922 c -0.08776,0.17577 0.03987,0.3825 0.236328,0.38281 0.441433,7e-5 0.880975,-10e-4 1.320313,0.002 0.147698,0.002 0.268157,-0.11792 0.267578,-0.26563 0,-1.58789 0,-3.17578 0,-4.76367 0,-0.71637 -0.703639,-1.28214 -1.576172,-1.32227 -0.428463,-0.0197 -0.697746,0.0518 -0.986328,0.11914 -0.288582,0.0673 -0.618979,0.13622 -1.277344,0.14454 -0.658346,0.008 -0.987867,-0.0532 -1.271484,-0.11915 -0.283617,-0.0659 -0.546437,-0.14453 -0.974609,-0.14453 -1.234723,10e-6 -2.468402,0 -3.703126,0 -0.0091,-4.7e-4 -0.01823,-4.7e-4 -0.02734,0 z"
         style="color:#000000;font-style:normal;font-variant:normal;font-weight:normal;font-stretch:normal;font-size:medium;line-height:normal;font-family:sans-serif;font-variant-ligatures:normal;font-variant-position:normal;font-variant-caps:normal;font-variant-numeric:normal;font-variant-alternates:normal;font-feature-settings:normal;text-indent:0;text-align:start;text-decoration:none;text-decoration-line:none;text-decoration-style:solid;text-decoration-color:#000000;letter-spacing:normal;word-spacing:normal;text-transform:none;writing-mode:lr-tb;direction:ltr;text-orientation:mixed;dominant-baseline:auto;baseline-shift:baseline;text-anchor:start;white-space:normal;shape-padding:0;clip-rule:nonzero;display:inline;overflow:visible;visibility:visible;opacity:1;isolation:auto;mix-blend-mode:normal;color-interpolation:sRGB;color-interpolation-filters:linearRGB;solid-color:#000000;solid-opacity:1;vector-effect:none;fill:#eceff1;fill-opacity:1;fill-rule:nonzero;stroke:none;stroke-width:0.42959738;stroke-linecap:round;stroke-linejoin:round;stroke-miterlimit:4;stroke-dasharray:none;stroke-dashoffset:0;stroke-opacity:1;color-rendering:auto;image-rendering:auto;shape-rendering:auto;text-rendering:auto;enable-background:accumulate" />
      <path
         sodipodi:nodetypes="ccccccccscccscccccccc"
         inkscape:connector-curvature="0"
         id="path2059"
         d="m 23.574164,287.87084 c -0.07057,0.007 -0.135453,0.0429 -0.179834,0.0982 l -0.767911,0.96066 c 1.206936,0 2.412952,10e-6 3.619934,0 0.428172,0 0.690999,0.0783 0.974616,0.14418 0.283618,0.0659 0.612894,0.12737 1.271241,0.11937 0.658365,-0.008 0.988859,-0.0774 1.27744,-0.14469 0.288584,-0.0673 0.558041,-0.13856 0.986504,-0.11886 0.872533,0.0401 1.576131,0.60551 1.576131,1.32188 v 3.9703 c 0.263597,0 0.527563,-7.6e-4 0.790649,10e-4 0.147699,0.002 0.268264,-0.11791 0.267684,-0.26562 v -4.76405 c 0,-0.71637 -0.703598,-1.28175 -1.57613,-1.32188 -0.428464,-0.0197 -0.697921,0.0515 -0.986505,0.11885 -0.288581,0.0673 -0.619074,0.13638 -1.27744,0.1447 -0.658347,0.008 -0.987623,-0.0534 -1.271241,-0.11937 -0.283617,-0.0659 -0.546444,-0.14418 -0.974616,-0.14418 -1.234723,10e-6 -2.468409,0 -3.703135,0 -0.0091,-4.8e-4 -0.01828,-4.8e-4 -0.02739,0 z"
         style="color:#000000;font-style:normal;font-variant:normal;font-weight:normal;font-stretch:normal;font-size:medium;line-height:normal;font-family:sans-serif;font-variant-ligatures:normal;font-variant-position:normal;font-variant-caps:normal;font-variant-numeric:normal;font-variant-alternates:normal;font-feature-settings:normal;text-indent:0;text-align:start;text-decoration:none;text-decoration-line:none;text-decoration-style:solid;text-decoration-color:#000000;letter-spacing:normal;word-spacing:normal;text-transform:none;writing-mode:lr-tb;direction:ltr;text-orientation:mixed;dominant-baseline:auto;baseline-shift:baseline;text-anchor:start;white-space:normal;shape-padding:0;clip-rule:nonzero;display:inline;overflow:visible;visibility:visible;opacity:1;isolation:auto;mix-blend-mode:normal;color-interpolation:sRGB;color-interpolation-filters:linearRGB;solid-color:#000000;solid-opacity:1;vector-effect:none;fill:#cdd3d7;fill-opacity:1;fill-rule:nonzero;stroke:none;stroke-width:0.42959738;stroke-linecap:round;stroke-linejoin:round;stroke-miterlimit:4;stroke-dasharray:none;stroke-dashoffset:0;stroke-opacity:1;color-rendering:auto;image-rendering:auto;shape-rendering:auto;text-rendering:auto;enable-background:accumulate" />
      <path
         inkscape:connector-curvature="0"
         id="path1241"
         d="m 32.625,288.13477 a 0.264645,0.264645 0 1 0 0,0.52929 h 0.765625 c 0.30335,0.002 0.379822,0.11223 0.451172,0.28125 0.07157,0.16955 0.07813,0.39506 0.07813,0.51367 v 1.88086 a 0.2646485,0.2646485 0 1 0 0.529297,0 v -1.88086 c 0,-0.11861 0.0058,-0.42017 -0.121094,-0.7207 -0.126865,-0.30053 -0.449485,-0.60196 -0.9375,-0.60351 z"
         style="color:#000000;font-style:normal;font-variant:normal;font-weight:normal;font-stretch:normal;font-size:medium;line-height:normal;font-family:sans-serif;font-variant-ligatures:normal;font-variant-position:normal;font-variant-caps:normal;font-variant-numeric:normal;font-variant-alternates:normal;font-feature-settings:normal;text-indent:0;text-align:start;text-decoration:none;text-decoration-line:none;text-decoration-style:solid;text-decoration-color:#000000;letter-spacing:normal;word-spacing:normal;text-transform:none;writing-mode:lr-tb;direction:ltr;text-orientation:mixed;dominant-baseline:auto;baseline-shift:baseline;text-anchor:start;white-space:normal;shape-padding:0;clip-rule:nonzero;display:inline;overflow:visible;visibility:visible;opacity:1;isolation:auto;mix-blend-mode:normal;color-interpolation:sRGB;color-interpolation-filters:linearRGB;solid-color:#000000;solid-opacity:1;vector-effect:none;fill:#cdd3d7;fill-opacity:1;fill-rule:nonzero;stroke:none;stroke-width:0.42959738;stroke-linecap:round;stroke-linejoin:round;stroke-miterlimit:4;stroke-dasharray:none;stroke-dashoffset:0;stroke-opacity:1;color-rendering:auto;image-rendering:auto;shape-rendering:auto;text-rendering:auto;enable-background:accumulate" />
      <path
         inkscape:connector-curvature="0"
         id="path2040"
         transform="matrix(0.26458333,0,0,0.26458333,0,284.3)"
         d="m 125.19727,18.494141 c -0.80641,0 -2.15372,-0.02265 -3.43946,0.435547 -0.64286,0.229795 -1.28931,0.594166 -1.77929,1.197265 -0.48999,0.603099 -0.7754,1.430986 -0.7754,2.369141 0,0.666671 0.18706,1.2777 0.58985,1.697265 0.40277,0.419566 0.91303,0.558943 1.28515,0.605469 0.21464,0.02646 0.30145,0.01563 0.44336,0.01563 0.15001,0.916309 0.27945,1.861756 0.9004,2.324219 0.83978,0.625436 1.8072,0.658203 2.77539,0.658203 h 1.0039 v -9.302734 z"
         style="color:#000000;font-style:normal;font-variant:normal;font-weight:normal;font-stretch:normal;font-size:medium;line-height:normal;font-family:sans-serif;font-variant-ligatures:normal;font-variant-position:normal;font-variant-caps:normal;font-variant-numeric:normal;font-variant-alternates:normal;font-feature-settings:normal;text-indent:0;text-align:start;text-decoration:none;text-decoration-line:none;text-decoration-style:solid;text-decoration-color:#000000;letter-spacing:normal;word-spacing:normal;text-transform:none;writing-mode:lr-tb;direction:ltr;text-orientation:mixed;dominant-baseline:auto;baseline-shift:baseline;text-anchor:start;white-space:normal;shape-padding:0;clip-rule:nonzero;display:inline;overflow:visible;visibility:visible;opacity:1;isolation:auto;mix-blend-mode:normal;color-interpolation:sRGB;color-interpolation-filters:linearRGB;solid-color:#000000;solid-opacity:1;vector-effect:none;fill:#455a64;fill-opacity:1;fill-rule:nonzero;stroke:none;stroke-width:1.62367511;stroke-linecap:round;stroke-linejoin:round;stroke-miterlimit:4;stroke-dasharray:none;stroke-dashoffset:0;stroke-opacity:1;color-rendering:auto;image-rendering:auto;shape-rendering:auto;text-rendering:auto;enable-background:accumulate" />
      <path
         inkscape:connector-curvature="0"
         id="path2015"
         transform="matrix(0.26458333,0,0,0.26458333,0,284.3)"
         d="m 103.14648,13.498047 v 1.039062 c 0,1.241084 0.20435,2.419839 0.85743,3.38086 0.65308,0.960982 1.81844,1.580078 3.19531,1.580078 1.02079,0 2.29903,-0.004 3.35937,-0.0078 0.065,0.196914 0.0437,0.433009 0.1543,0.605469 0.29314,0.457058 0.74012,0.768846 1.18164,0.945313 0.88305,0.353007 1.78069,0.324218 2.70117,0.324218 2.36554,0 4.31251,-1.945016 4.3125,-4.310546 v -2.339844 l -0.008,0.05273 -0.0117,-1.242187 c -0.89773,0.073 -1.62459,0.247224 -2.37305,0.421875 -1.0907,0.254362 -2.33981,0.515429 -4.82812,0.546875 -2.48824,0.03024 -3.73275,-0.201912 -4.80469,-0.451172 -1.07194,-0.249071 -2.0653,-0.544922 -3.68359,-0.544922 -0.0176,0 -0.0352,0 -0.0527,0 z"
         style="color:#000000;font-style:normal;font-variant:normal;font-weight:normal;font-stretch:normal;font-size:medium;line-height:normal;font-family:sans-serif;font-variant-ligatures:normal;font-variant-position:normal;font-variant-caps:normal;font-variant-numeric:normal;font-variant-alternates:normal;font-feature-settings:normal;text-indent:0;text-align:start;text-decoration:none;text-decoration-line:none;text-decoration-style:solid;text-decoration-color:#000000;letter-spacing:normal;word-spacing:normal;text-transform:none;writing-mode:lr-tb;direction:ltr;text-orientation:mixed;dominant-baseline:auto;baseline-shift:baseline;text-anchor:start;white-space:normal;shape-padding:0;clip-rule:nonzero;display:inline;overflow:visible;visibility:visible;opacity:1;isolation:auto;mix-blend-mode:normal;color-interpolation:sRGB;color-interpolation-filters:linearRGB;solid-color:#000000;solid-opacity:1;vector-effect:none;fill:#455a64;fill-opacity:1;fill-rule:nonzero;stroke:none;stroke-width:1.62367511;stroke-linecap:round;stroke-linejoin:round;stroke-miterlimit:4;stroke-dasharray:none;stroke-dashoffset:0;stroke-opacity:1;color-rendering:auto;image-rendering:auto;shape-rendering:auto;text-rendering:auto;enable-background:accumulate" />
      <path
         sodipodi:nodetypes="cccccccsccc"
         inkscape:connector-curvature="0"
         id="path2028"
         transform="matrix(0.26458333,0,0,0.26458333,0,284.3)"
         d="m 100.5332,23.529297 c -10e-6,0.0026 -10e-6,0.0052 0,0.0078 0.001,1.131415 0.63662,2.145541 1.59571,2.650391 -0.0269,0.681506 0.015,1.357757 0.0659,2.036437 2.7095,0.203118 5.35851,0.240037 8.00222,0.262391 h 4e-5 v -2.359363 c 4e-5,-2.284989 -1.80355,-4.199219 -4.06055,-4.199219 -0.27345,0 -0.54484,0.05344 -0.8125,0.109375 0,-0.760955 -0.56087,-1.39674 -1.45824,-1.39674 -3.156,0 -3.33258,1.231312 -3.33258,2.888928 z"
         style="color:#000000;font-style:normal;font-variant:normal;font-weight:normal;font-stretch:normal;font-size:medium;line-height:normal;font-family:sans-serif;font-variant-ligatures:normal;font-variant-position:normal;font-variant-caps:normal;font-variant-numeric:normal;font-variant-alternates:normal;font-feature-settings:normal;text-indent:0;text-align:start;text-decoration:none;text-decoration-line:none;text-decoration-style:solid;text-decoration-color:#000000;letter-spacing:normal;word-spacing:normal;text-transform:none;writing-mode:lr-tb;direction:ltr;text-orientation:mixed;dominant-baseline:auto;baseline-shift:baseline;text-anchor:start;white-space:normal;shape-padding:0;clip-rule:nonzero;display:inline;overflow:visible;visibility:visible;opacity:1;isolation:auto;mix-blend-mode:normal;color-interpolation:sRGB;color-interpolation-filters:linearRGB;solid-color:#000000;solid-opacity:1;vector-effect:none;fill:#455a64;fill-opacity:1;fill-rule:nonzero;stroke:none;stroke-width:1.62367511;stroke-linecap:round;stroke-linejoin:round;stroke-miterlimit:4;stroke-dasharray:none;stroke-dashoffset:0;stroke-opacity:1;color-rendering:auto;image-rendering:auto;shape-rendering:auto;text-rendering:auto;enable-background:accumulate" />
      <path
         style="color:#000000;font-style:normal;font-variant:normal;font-weight:normal;font-stretch:normal;font-size:medium;line-height:normal;font-family:sans-serif;font-variant-ligatures:normal;font-variant-position:normal;font-variant-caps:normal;font-variant-numeric:normal;font-variant-alternates:normal;font-feature-settings:normal;text-indent:0;text-align:start;text-decoration:none;text-decoration-line:none;text-decoration-style:solid;text-decoration-color:#000000;letter-spacing:normal;word-spacing:normal;text-transform:none;writing-mode:lr-tb;direction:ltr;text-orientation:mixed;dominant-baseline:auto;baseline-shift:baseline;text-anchor:start;white-space:normal;shape-padding:0;clip-rule:nonzero;display:inline;overflow:visible;visibility:visible;opacity:1;isolation:auto;mix-blend-mode:normal;color-interpolation:sRGB;color-interpolation-filters:linearRGB;solid-color:#000000;solid-opacity:1;vector-effect:none;fill:#455a64;fill-opacity:1;fill-rule:nonzero;stroke:none;stroke-width:0.42959738;stroke-linecap:round;stroke-linejoin:round;stroke-miterlimit:4;stroke-dasharray:none;stroke-dashoffset:0;stroke-opacity:1;color-rendering:auto;image-rendering:auto;shape-rendering:auto;text-rendering:auto;enable-background:accumulate"
         d="m 24.394531,287.1154 a 0.26460996,0.26460996 0 0 0 -0.263672,0.26563 v 1.32226 a 0.26460996,0.26460996 0 0 0 0.263672,0.26367 h 0.763672 c 0,0 0.19498,-0.0122 0.332031,-0.14453 0.137052,-0.13229 0.226563,-0.35748 0.226563,-0.6875 0,-0.32537 -0.07748,-0.56346 -0.166016,-0.7207 -0.08853,-0.15724 -0.210937,-0.25 -0.210937,-0.25 a 0.26460996,0.26460996 0 0 0 -0.152344,-0.0488 z"
         id="path1995"
         inkscape:connector-curvature="0" />
      <path
         inkscape:connector-curvature="0"
         id="path2000"
         d="m 24.394376,287.11536 a 0.26460995,0.26460995 0 0 0 -0.263549,0.26562 v 0.26355 h 0.527616 a 0.26460995,0.26460995 0 0 1 0.152445,0.0491 c 0,0 0.12231,0.0924 0.21084,0.2496 0.08854,0.15724 0.165882,0.39552 0.165882,0.72089 0,0.11501 -0.01414,0.21277 -0.03411,0.30282 h 0.0047 c 0,0 0.195229,-0.0124 0.33228,-0.14469 0.137052,-0.13229 0.226343,-0.35728 0.226343,-0.6873 0,-0.32537 -0.07735,-0.56365 -0.165882,-0.72089 -0.08853,-0.15724 -0.21084,-0.24959 -0.21084,-0.24959 a 0.26460995,0.26460995 0 0 0 -0.152445,-0.0491 z"
         style="color:#000000;font-style:normal;font-variant:normal;font-weight:normal;font-stretch:normal;font-size:medium;line-height:normal;font-family:sans-serif;font-variant-ligatures:normal;font-variant-position:normal;font-variant-caps:normal;font-variant-numeric:normal;font-variant-alternates:normal;font-feature-settings:normal;text-indent:0;text-align:start;text-decoration:none;text-decoration-line:none;text-decoration-style:solid;text-decoration-color:#000000;letter-spacing:normal;word-spacing:normal;text-transform:none;writing-mode:lr-tb;direction:ltr;text-orientation:mixed;dominant-baseline:auto;baseline-shift:baseline;text-anchor:start;white-space:normal;shape-padding:0;clip-rule:nonzero;display:inline;overflow:visible;visibility:visible;opacity:1;isolation:auto;mix-blend-mode:normal;color-interpolation:sRGB;color-interpolation-filters:linearRGB;solid-color:#000000;solid-opacity:1;vector-effect:none;fill:#293941;fill-opacity:1;fill-rule:nonzero;stroke:none;stroke-width:0.42959738;stroke-linecap:round;stroke-linejoin:round;stroke-miterlimit:4;stroke-dasharray:none;stroke-dashoffset:0;stroke-opacity:1;color-rendering:auto;image-rendering:auto;shape-rendering:auto;text-rendering:auto;enable-background:accumulate" />
      <path
         sodipodi:nodetypes="csccccccccccc"
         inkscape:connector-curvature="0"
         id="path2064"
         d="m 27.292919,287.85741 v 0.27492 c 0,0.10288 0.0081,0.20289 0.02066,0.30127 1.072292,0.23102 2.182148,0.34512 2.927342,0.17991 0.788077,-0.22783 0.69314,0.33186 0.69314,0.71409 2e-6,0.17714 -0.04498,0.34335 -0.118338,0.49351 0.380606,-0.18567 0.647507,-0.57391 0.647504,-1.02267 0.0037,-0.34469 -0.0022,-0.61141 -0.0052,-0.93376 -0.237524,0.0193 -0.42984,0.0654 -0.62787,0.11162 -0.288578,0.0673 -0.619074,0.13638 -1.27744,0.1447 -0.658346,0.008 -0.987623,-0.0534 -1.271241,-0.11937 -0.283617,-0.0659 -0.546443,-0.14418 -0.974616,-0.14418 z"
         style="color:#000000;font-style:normal;font-variant:normal;font-weight:normal;font-stretch:normal;font-size:medium;line-height:normal;font-family:sans-serif;font-variant-ligatures:normal;font-variant-position:normal;font-variant-caps:normal;font-variant-numeric:normal;font-variant-alternates:normal;font-feature-settings:normal;text-indent:0;text-align:start;text-decoration:none;text-decoration-line:none;text-decoration-style:solid;text-decoration-color:#000000;letter-spacing:normal;word-spacing:normal;text-transform:none;writing-mode:lr-tb;direction:ltr;text-orientation:mixed;dominant-baseline:auto;baseline-shift:baseline;text-anchor:start;white-space:normal;shape-padding:0;clip-rule:nonzero;display:inline;overflow:visible;visibility:visible;opacity:1;isolation:auto;mix-blend-mode:normal;color-interpolation:sRGB;color-interpolation-filters:linearRGB;solid-color:#000000;solid-opacity:1;vector-effect:none;fill:#293941;fill-opacity:1;fill-rule:nonzero;stroke:none;stroke-width:0.42959738;stroke-linecap:round;stroke-linejoin:round;stroke-miterlimit:4;stroke-dasharray:none;stroke-dashoffset:0;stroke-opacity:1;color-rendering:auto;image-rendering:auto;shape-rendering:auto;text-rendering:auto;enable-background:accumulate" />
      <path
         inkscape:connector-curvature="0"
         id="path2070"
         d="m 33.390726,289.19324 -0.265618,5.2e-4 c -0.188915,0 -0.490061,6.4e-4 -0.792716,0.0837 v 2.14819 c 0.01749,0.0203 0.03667,0.0386 0.05839,0.0548 0.222192,0.16548 0.478155,0.17415 0.734322,0.17415 h 0.265618 z"
         style="color:#000000;font-style:normal;font-variant:normal;font-weight:normal;font-stretch:normal;font-size:medium;line-height:normal;font-family:sans-serif;font-variant-ligatures:normal;font-variant-position:normal;font-variant-caps:normal;font-variant-numeric:normal;font-variant-alternates:normal;font-feature-settings:normal;text-indent:0;text-align:start;text-decoration:none;text-decoration-line:none;text-decoration-style:solid;text-decoration-color:#000000;letter-spacing:normal;word-spacing:normal;text-transform:none;writing-mode:lr-tb;direction:ltr;text-orientation:mixed;dominant-baseline:auto;baseline-shift:baseline;text-anchor:start;white-space:normal;shape-padding:0;clip-rule:nonzero;display:inline;overflow:visible;visibility:visible;opacity:1;isolation:auto;mix-blend-mode:normal;color-interpolation:sRGB;color-interpolation-filters:linearRGB;solid-color:#000000;solid-opacity:1;vector-effect:none;fill:#293941;fill-opacity:1;fill-rule:nonzero;stroke:none;stroke-width:0.42959738;stroke-linecap:round;stroke-linejoin:round;stroke-miterlimit:4;stroke-dasharray:none;stroke-dashoffset:0;stroke-opacity:1;color-rendering:auto;image-rendering:auto;shape-rendering:auto;text-rendering:auto;enable-background:accumulate" />
      <path
         inkscape:connector-curvature="0"
         id="path2076"
         d="m 27.480956,289.76117 c -0.696085,0 -0.842222,0.22767 -0.872297,0.55707 0.09768,-0.0165 0.20648,-0.0279 0.34313,-0.0279 0.237429,0 0.386024,0.16815 0.386024,0.36949 0.07082,-0.0148 0.142624,-0.0289 0.214974,-0.0289 0.597162,0 1.074362,0.50647 1.074351,1.11104 v 0.0863 c 0.176313,0.003 0.353264,0.007 0.529167,0.009 v -0.62425 c 1.1e-5,-0.60457 -0.477189,-1.11105 -1.074351,-1.11105 -0.07235,0 -0.144158,0.0141 -0.214974,0.0289 0,-0.20134 -0.148595,-0.36948 -0.386024,-0.36948 z"
         style="color:#000000;font-style:normal;font-variant:normal;font-weight:normal;font-stretch:normal;font-size:medium;line-height:normal;font-family:sans-serif;font-variant-ligatures:normal;font-variant-position:normal;font-variant-caps:normal;font-variant-numeric:normal;font-variant-alternates:normal;font-feature-settings:normal;text-indent:0;text-align:start;text-decoration:none;text-decoration-line:none;text-decoration-style:solid;text-decoration-color:#000000;letter-spacing:normal;word-spacing:normal;text-transform:none;writing-mode:lr-tb;direction:ltr;text-orientation:mixed;dominant-baseline:auto;baseline-shift:baseline;text-anchor:start;white-space:normal;shape-padding:0;clip-rule:nonzero;display:inline;overflow:visible;visibility:visible;opacity:1;isolation:auto;mix-blend-mode:normal;color-interpolation:sRGB;color-interpolation-filters:linearRGB;solid-color:#000000;solid-opacity:1;vector-effect:none;fill:#293941;fill-opacity:1;fill-rule:nonzero;stroke:none;stroke-width:0.42959738;stroke-linecap:round;stroke-linejoin:round;stroke-miterlimit:4;stroke-dasharray:none;stroke-dashoffset:0;stroke-opacity:1;color-rendering:auto;image-rendering:auto;shape-rendering:auto;text-rendering:auto;enable-background:accumulate" />
    </g>
  </g>
</svg>
