<?xml version="1.0" encoding="UTF-8" standalone="no"?>
<!-- Created with Inkscape (http://www.inkscape.org/) -->

<svg
   xmlns:dc="http://purl.org/dc/elements/1.1/"
   xmlns:cc="http://creativecommons.org/ns#"
   xmlns:rdf="http://www.w3.org/1999/02/22-rdf-syntax-ns#"
   xmlns:svg="http://www.w3.org/2000/svg"
   xmlns="http://www.w3.org/2000/svg"
   xmlns:sodipodi="http://sodipodi.sourceforge.net/DTD/sodipodi-0.dtd"
   xmlns:inkscape="http://www.inkscape.org/namespaces/inkscape"
   width="48pt"
   height="48pt"
   viewBox="0 0 16.933334 16.933333"
   version="1.1"
   id="svg979"
   inkscape:version="0.92.4 (5da689c313, 2019-01-14)"
   sodipodi:docname="15 - Bird House.svg"
   inkscape:export-filename="E:\TR Design Studio Creative\Project Design\TR Creative Design\Icon Design\Project Hiring\Icon Icons\Project - 001\001 - Agriculture And Farming\Line\Export\15 - Bird House.png"
   inkscape:export-xdpi="768"
   inkscape:export-ydpi="768">
  <defs
     id="defs973" />
  <sodipodi:namedview
     id="base"
     pagecolor="#ffffff"
     bordercolor="#666666"
     borderopacity="1.0"
     inkscape:pageopacity="0.0"
     inkscape:pageshadow="2"
     inkscape:zoom="8.546875"
     inkscape:cx="32"
     inkscape:cy="32"
     inkscape:document-units="pt"
     inkscape:current-layer="layer1"
     showgrid="false"
     units="pt"
     inkscape:window-width="1366"
     inkscape:window-height="716"
     inkscape:window-x="-8"
     inkscape:window-y="-8"
     inkscape:window-maximized="1"
     inkscape:snap-bbox="true"
     inkscape:bbox-nodes="true"
     inkscape:snap-nodes="false"
     showguides="false">
    <inkscape:grid
       type="xygrid"
       id="grid1526" />
    <sodipodi:guide
       position="0.97013909,15.963209"
       orientation="56.666615,0"
       id="guide1528"
       inkscape:locked="false" />
    <sodipodi:guide
       position="0.97013909,0.97016731"
       orientation="0,56.666667"
       id="guide1530"
       inkscape:locked="false" />
    <sodipodi:guide
       position="15.963195,0.97016731"
       orientation="-56.666615,0"
       id="guide1532"
       inkscape:locked="false" />
    <sodipodi:guide
       position="15.963195,15.963209"
       orientation="0,-56.666667"
       id="guide1534"
       inkscape:locked="false" />
  </sodipodi:namedview>
  <metadata
     id="metadata976">
    <rdf:RDF>
      <cc:Work
         rdf:about="">
        <dc:format>image/svg+xml</dc:format>
        <dc:type
           rdf:resource="http://purl.org/dc/dcmitype/StillImage" />
        <dc:title></dc:title>
      </cc:Work>
    </rdf:RDF>
  </metadata>
  <g
     inkscape:label="Layer 1"
     inkscape:groupmode="layer"
     id="layer1"
     transform="translate(0,-280.06668)">
    <path
       style="color:#000000;font-style:normal;font-variant:normal;font-weight:normal;font-stretch:normal;font-size:medium;line-height:normal;font-family:sans-serif;font-variant-ligatures:normal;font-variant-position:normal;font-variant-caps:normal;font-variant-numeric:normal;font-variant-alternates:normal;font-feature-settings:normal;text-indent:0;text-align:start;text-decoration:none;text-decoration-line:none;text-decoration-style:solid;text-decoration-color:#000000;letter-spacing:normal;word-spacing:normal;text-transform:none;writing-mode:lr-tb;direction:ltr;text-orientation:mixed;dominant-baseline:auto;baseline-shift:baseline;text-anchor:start;white-space:normal;shape-padding:0;clip-rule:nonzero;display:inline;overflow:visible;visibility:visible;opacity:1;isolation:auto;mix-blend-mode:normal;color-interpolation:sRGB;color-interpolation-filters:linearRGB;solid-color:#000000;solid-opacity:1;vector-effect:none;fill:#000000;fill-opacity:1;fill-rule:nonzero;stroke:none;stroke-width:0.529167;stroke-linecap:round;stroke-linejoin:round;stroke-miterlimit:4;stroke-dasharray:none;stroke-dashoffset:0;stroke-opacity:1;color-rendering:auto;image-rendering:auto;shape-rendering:auto;text-rendering:auto;enable-background:accumulate"
       d="m 8.467622,281.03683 c -0.3631753,0 -0.6795438,0.20447 -0.8485041,0.50159 l -4.2202521,2.81095 c -0.091485,0.0602 -0.146903,0.16229 -0.147043,0.27181 v 1.30426 c -9.778e-4,0.26139 0.2909509,0.41751 0.5079598,0.27181 l 0.4716733,-0.31445 v 4.60663 c -0.011246,-6e-4 -0.022487,-6e-4 -0.033735,0 -0.4245014,0.0314 -0.3917444,0.66435 0.033735,0.65182 h 0.5327844 l 2.0751171,1.77975 v 0.17378 c -6.519e-4,0.17999 0.1446476,0.32646 0.3246335,0.32718 v 2.28072 c -6.519e-4,0.18005 0.1445824,0.32654 0.3246334,0.32718 h 1.9560856 c 0.1809928,6.8e-4 0.3278795,-0.14619 0.3271788,-0.32718 v -2.28072 c 0.1799891,-7.2e-4 0.3253243,-0.14719 0.3246363,-0.32718 v -0.17442 l 2.074479,-1.77911 h 0.53342 c 0.444408,0.01 0.444408,-0.6618 0,-0.65182 v -4.60663 l 0.471677,0.31445 c 0.216591,0.14265 0.50514,-0.0124 0.505411,-0.27181 v -1.30426 c 3.26e-4,-0.10902 -0.05393,-0.21104 -0.144495,-0.27181 L 9.3129453,281.53524 C 9.1442164,281.23989 8.8294807,281.03683 8.467622,281.03683 Z m 0,0.65182 c 0.1838544,0 0.3252723,0.14078 0.3252723,0.32463 0,0.18386 -0.1414179,0.32717 -0.3252723,0.32717 -0.1838544,0 -0.327182,-0.14331 -0.327182,-0.32717 0,-0.18385 0.1433276,-0.32463 0.327182,-0.32463 z m -0.9108862,0.67282 c 0.053321,0.13741 0.1356786,0.25963 0.2412467,0.35964 l -3.8937054,2.5958 v -0.52005 z m 1.8205014,6.3e-4 3.6518208,2.43476 v 0.51751 l -3.8924352,-2.5939 c 0.1048279,-0.0998 0.1876185,-0.2214 0.2406144,-0.35837 z m -0.5843429,0.91216 1.6308097,1.08785 v 2.21515 c 0,0.43465 0.651816,0.43465 0.651816,0 v -1.7804 l 0.977088,0.65118 v 5.04139 H 11.07552 v -2.60854 c 0.0034,-0.18478 -0.146857,-0.3351 -0.331634,-0.33163 -0.180064,0.004 -0.323558,0.15157 -0.320182,0.33163 v 2.60854 H 8.7928943 v -0.71293 c 0.3773133,-0.13619 0.6518156,-0.49679 0.6518156,-0.91853 0,-0.5361 -0.4409728,-0.97708 -0.9770879,-0.97708 -0.5361118,0 -0.9789977,0.44098 -0.9789977,0.97708 0,0.42104 0.2748446,0.78117 0.6518157,0.9179 v 0.71356 c -0.5443508,-3.6e-4 -1.0852502,0 -1.6282648,0 v -0.32719 c 0.00196,-0.18288 -0.1468477,-0.33178 -0.3297276,-0.32972 -0.1800542,0.002 -0.3247541,0.14967 -0.3227236,0.32972 v 0.32719 H 4.8832715 v -5.04139 l 0.9764525,-0.65118 v 4.06111 c 0,0.43465 0.6524512,0.43465 0.6524512,0 v -4.49586 L 8.14044,283.27617 v 1.06747 c -0.5585833,0.14716 -0.9764491,0.65462 -0.9764491,1.25717 0,0.60255 0.4178658,1.10801 0.9764491,1.25461 v 0.0464 c 0,0.43465 0.6524543,0.43465 0.6524543,0 v -0.0458 c 0.5596488,-0.14588 0.9789944,-0.65194 0.9789944,-1.25526 0,-0.60331 -0.4193456,-1.11138 -0.9789944,-1.2578 z m -0.3252723,1.6741 c 0.3638499,0 0.6524511,0.28861 0.6524511,0.65245 0,0.36385 -0.2886012,0.65182 -0.6524511,0.65182 -0.3638468,0 -0.6518156,-0.28797 -0.6518156,-0.65182 0,-0.36384 0.2879688,-0.65245 0.6518156,-0.65245 z m 0,3.58498 c 0.1838478,0 0.3252723,0.14079 0.3252723,0.32463 0,0.18385 -0.1414245,0.32719 -0.3252723,0.32719 -0.1838445,0 -0.327182,-0.14334 -0.327182,-0.32719 0,-0.18384 0.1433375,-0.32463 0.327182,-0.32463 z m -2.702105,2.60791 h 1.0738404 v 0.92106 z m 1.7231073,0 h 1.9560856 v 1.62826 H 7.4886243 Z m 2.6079007,0 h 1.073205 l -1.073205,0.92043 z m -2.2807186,2.28071 h 1.3042667 v 1.95608 H 7.8158064 Z"
       id="rect1169"
       inkscape:connector-curvature="0"
       sodipodi:nodetypes="scccccccccccccccccccccccccccccsssssscccccccccccccssccccccccccsssccccccccccsscccscsscsccsssssssssscccccccccccccccccc" />
  </g>
</svg>
