<?xml version="1.0" encoding="UTF-8" standalone="no"?>
<!-- Created with Inkscape (http://www.inkscape.org/) -->

<svg
   xmlns:dc="http://purl.org/dc/elements/1.1/"
   xmlns:cc="http://creativecommons.org/ns#"
   xmlns:rdf="http://www.w3.org/1999/02/22-rdf-syntax-ns#"
   xmlns:svg="http://www.w3.org/2000/svg"
   xmlns="http://www.w3.org/2000/svg"
   xmlns:sodipodi="http://sodipodi.sourceforge.net/DTD/sodipodi-0.dtd"
   xmlns:inkscape="http://www.inkscape.org/namespaces/inkscape"
   width="48pt"
   height="48pt"
   viewBox="0 0 16.933334 16.933333"
   version="1.1"
   id="svg979"
   inkscape:version="0.92.4 (5da689c313, 2019-01-14)"
   sodipodi:docname="2 - Eggs.svg"
   inkscape:export-filename="E:\TR Design Studio Creative\Project Design\TR Creative Design\Icon Design\Project Hiring\Icon Icons\Project - 001\001 - Agriculture And Farming\Line\Export\2 - Eggs.png"
   inkscape:export-xdpi="768"
   inkscape:export-ydpi="768">
  <defs
     id="defs973" />
  <sodipodi:namedview
     id="base"
     pagecolor="#ffffff"
     bordercolor="#666666"
     borderopacity="1.0"
     inkscape:pageopacity="0.0"
     inkscape:pageshadow="2"
     inkscape:zoom="6.0435533"
     inkscape:cx="32"
     inkscape:cy="32"
     inkscape:document-units="pt"
     inkscape:current-layer="layer1"
     showgrid="false"
     units="pt"
     inkscape:window-width="1366"
     inkscape:window-height="716"
     inkscape:window-x="-8"
     inkscape:window-y="-8"
     inkscape:window-maximized="1"
     inkscape:snap-bbox="true"
     inkscape:bbox-nodes="true"
     inkscape:snap-nodes="false"
     showguides="false">
    <inkscape:grid
       type="xygrid"
       id="grid1526" />
    <sodipodi:guide
       position="0.97013909,15.963209"
       orientation="56.666615,0"
       id="guide1528"
       inkscape:locked="false" />
    <sodipodi:guide
       position="0.97013909,0.97016731"
       orientation="0,56.666667"
       id="guide1530"
       inkscape:locked="false" />
    <sodipodi:guide
       position="15.963195,0.97016731"
       orientation="-56.666615,0"
       id="guide1532"
       inkscape:locked="false" />
    <sodipodi:guide
       position="15.963195,15.963209"
       orientation="0,-56.666667"
       id="guide1534"
       inkscape:locked="false" />
  </sodipodi:namedview>
  <metadata
     id="metadata976">
    <rdf:RDF>
      <cc:Work
         rdf:about="">
        <dc:format>image/svg+xml</dc:format>
        <dc:type
           rdf:resource="http://purl.org/dc/dcmitype/StillImage" />
        <dc:title></dc:title>
      </cc:Work>
    </rdf:RDF>
  </metadata>
  <g
     inkscape:label="Layer 1"
     inkscape:groupmode="layer"
     id="layer1"
     transform="translate(0,-280.06668)">
    <path
       style="color:#000000;font-style:normal;font-variant:normal;font-weight:normal;font-stretch:normal;font-size:medium;line-height:normal;font-family:sans-serif;font-variant-ligatures:normal;font-variant-position:normal;font-variant-caps:normal;font-variant-numeric:normal;font-variant-alternates:normal;font-feature-settings:normal;text-indent:0;text-align:start;text-decoration:none;text-decoration-line:none;text-decoration-style:solid;text-decoration-color:#000000;letter-spacing:normal;word-spacing:normal;text-transform:none;writing-mode:lr-tb;direction:ltr;text-orientation:mixed;dominant-baseline:auto;baseline-shift:baseline;text-anchor:start;white-space:normal;shape-padding:0;clip-rule:nonzero;display:inline;overflow:visible;visibility:visible;opacity:1;isolation:auto;mix-blend-mode:normal;color-interpolation:sRGB;color-interpolation-filters:linearRGB;solid-color:#000000;solid-opacity:1;vector-effect:none;fill:#000000;fill-opacity:1;fill-rule:nonzero;stroke:none;stroke-width:0.529167;stroke-linecap:round;stroke-linejoin:round;stroke-miterlimit:4;stroke-dasharray:none;stroke-dashoffset:0;stroke-opacity:1;color-rendering:auto;image-rendering:auto;shape-rendering:auto;text-rendering:auto;enable-background:accumulate"
       d="m 6.219937,283.68986 c -0.262294,-0.11051 -0.5435644,-0.17339 -0.839102,-0.1738 -1.4609561,-9e-5 -2.5719043,1.44567 -2.5720572,3.13995 -3.5e-6,9.7e-4 -3.5e-6,0.001 0,0.002 6.52e-4,0.0769 0.00833,0.15294 0.014006,0.2292 -0.3743384,0.55053 -0.5964735,1.25509 -0.596539,2.01053 3.175e-4,0.0813 0.00483,0.16232 0.010188,0.2432 h -0.534786 c -0.4006625,1.3e-4 -0.7315085,0.33352 -0.7315085,0.73419 v 0.81555 c 0,0.38432 0.305311,0.70332 0.68376,0.72896 l 0.2954047,2.64718 c 0.03436,0.30925 0.2931445,0.61564 0.650017,0.61564 h 11.734693 c 0.356858,0 0.615655,-0.30639 0.650018,-0.61564 l 0.292858,-2.64718 c 0.378724,-0.0255 0.686306,-0.34457 0.686306,-0.72896 v -0.81555 c 0,-0.40067 -0.333392,-0.73406 -0.734055,-0.73406 h -0.858837 c 0.0051,-0.0809 0.0095,-0.16193 0.0096,-0.24319 -6.8e-5,-0.75653 -0.222491,-1.46221 -0.597812,-2.01308 0.0078,-0.08 0.0094,-0.16088 0.01337,-0.22925 -1.54e-4,-1.69428 -1.1111,-3.14068 -2.572057,-3.14059 -0.303839,0.004 -0.594137,0.0329 -0.836555,0.17318 -0.458129,-0.77378 -1.2118458,-1.3039 -2.0849822,-1.30391 -0.9163536,-10e-6 -1.624219,0.53127 -2.0818804,1.30517 z m 2.0818384,-0.6532 c 0.5972863,-4e-5 1.096416,0.44569 1.4534668,1.04347 -0.4839645,0.41325 -0.842816,1.02365 -1.0046302,1.73104 -0.1450903,-0.0313 -0.2931258,-0.0528 -0.4462902,-0.0528 -0.1548168,0 -0.3047291,0.0223 -0.4513831,0.0541 -0.1615182,-0.70715 -0.5192194,-1.31699 -1.0027204,-1.73041 0.3569528,-0.59884 0.8032088,-1.04541 1.4515571,-1.04538 z m 0.171258,0.32533 c -0.4224153,-10e-6 -0.8092626,0.1829 -1.0829377,0.46922 -0.3215834,0.31483 0.1728288,0.7859 0.4717559,0.44946 0.1592286,-0.16657 0.3730705,-0.26675 0.6111818,-0.26675 0.4253347,-0.009 0.4253347,-0.64274 0,-0.65193 z m -3.0921984,0.80599 c 0.8520629,10e-4 1.6013494,0.77751 1.8208129,1.89722 -0.2405553,0.13978 -0.4580972,0.32298 -0.6481073,0.5386 -0.4538904,-0.5198 -1.0645384,-0.84552 -1.7552382,-0.84547 -0.4514003,-3e-5 -0.8691189,0.13871 -1.2312769,0.37944 0.191003,-1.13497 0.9326896,-1.96984 1.8138095,-1.96979 z m 5.842517,0 c 0.8807,-5e-5 1.621805,0.83372 1.813173,1.96788 -0.402263,-0.23464 -0.827441,-0.37622 -1.24528,-0.37622 -0.684059,0.005 -1.288356,0.32893 -1.738048,0.84484 -0.1907652,-0.21675 -0.4089751,-0.40094 -0.650654,-0.54116 0.2713182,-1.01258 1.014269,-1.86654 1.820809,-1.89534 z m -6.4250496,2.24228 c 0.6583009,0.0191 1.1364244,0.39841 1.4776595,0.90723 0.3721981,0.61093 0.4749536,1.16731 0.4233832,1.82401 H 2.8998309 c -0.00665,-0.0819 -0.021324,-0.16256 -0.021647,-0.24511 5.868e-4,-0.68347 0.2134668,-1.28627 0.5468804,-1.72786 0.3692591,-0.47719 0.8267169,-0.75827 1.3732381,-0.75827 z m 7.0069456,0 c 1.25971,0 1.90975,1.37843 1.922675,2.48804 -3.7e-5,0.0817 -0.01281,0.16206 -0.0191,0.2432 H 9.9093108 c -0.00653,-0.0819 -0.021425,-0.16249 -0.021647,-0.24511 -0.007,-0.57097 0.1794262,-1.09254 0.4424822,-1.57889 0.276875,-0.53149 0.942406,-0.90724 1.475102,-0.90724 z m -3.4238919,0.006 c 0.4928457,0.0292 0.9281917,0.333 1.2656561,0.78308 -0.2817946,0.61034 -0.4093658,1.11252 -0.4093658,1.69923 2.148e-4,0.0812 0.00461,0.16247 0.00955,0.2432 H 7.3601732 c 0,-0.1853 0.00618,-0.3136 0.00127,-0.46219 -0.030762,-0.53856 -0.1717543,-1.04554 -0.401088,-1.4815 0.3873264,-0.51988 0.8204986,-0.78182 1.4209995,-0.78182 z m -3.5830537,0.3578 c -0.4224157,-1e-5 -0.8092615,0.18034 -1.0829381,0.46666 -0.3016855,0.31451 0.1700706,0.76716 0.4717562,0.45266 0.159227,-0.16658 0.3730716,-0.2674 0.6111819,-0.26739 0.4444853,0.01 0.4444853,-0.6619 0,-0.65193 z m 7.0578776,0 c -0.422416,-1e-5 -0.809262,0.18034 -1.082938,0.46666 -0.301855,0.31452 0.169901,0.76716 0.471756,0.45266 0.159224,-0.16658 0.37307,-0.2674 0.611182,-0.26739 0.444485,0.01 0.444485,-0.6619 0,-0.65193 z m -10.1545325,3.01963 h 0.8976733 v 0.9798 c -0.3049784,0.002 -0.5993996,0 -0.8976733,0 -0.05077,0 -0.079582,-0.0314 -0.079582,-0.0822 v -0.81555 c 0,-0.0508 0.028811,-0.0822 0.079582,-0.0822 z m 1.5496007,0 h 1.1956246 v 0.9798 H 3.2512482 Z m 1.8481885,0 h 1.193078 v 0.9798 h -1.193078 z m 1.8456419,0 h 1.1956247 v 0.9798 H 6.9450786 Z m 1.8475521,0 H 9.988892 v 0.9798 H 8.7926307 Z m 1.8456423,0 h 1.196261 v 0.9798 h -1.196261 z m 1.848188,0 h 1.195624 v 0.9798 h -1.195624 z m 1.847552,0 h 0.895126 c 0.05077,0 0.08212,0.0313 0.08212,0.0822 v 0.81555 c 0,0.0508 -0.03135,0.0822 -0.08212,0.0822 h -0.895126 z m -11.5984495,1.63188 h 2.3371342 l 1.3032181,1.30259 -1.1695222,1.16952 -1.1688852,-1.16952 c 0.099683,-0.0998 0.1994936,-0.19949 0.2992242,-0.29922 0.210318,-0.20704 0.058861,-0.5648 -0.2361962,-0.55835 -0.085414,0.002 -0.1664592,0.0375 -0.2260098,0.0987 -0.099376,0.0994 -0.1986231,0.19863 -0.2979513,0.29796 z m 3.2590001,0 h 1.6839333 l -0.8416482,0.84166 z m 3.2602734,0 h 1.68266 l -0.841012,0.84166 z m 3.259636,0 h 1.68266 l -0.841648,0.84166 z m -4.047806,0.13371 1.1682489,1.16888 -1.1682489,1.16952 -1.1688852,-1.16952 z m 3.259637,6.5e-4 1.168249,1.16824 -1.168249,1.16889 -1.168886,-1.16889 z m 2.832446,0.42655 -0.147703,1.33633 -0.593992,-0.594 z m -12.1841659,0.001 0.7404213,0.74043 c -0.1976263,0.19762 -0.3950591,0.39569 -0.592719,0.59335 z m 4.4622646,1.20135 0.8416482,0.84229 H 5.9945636 Z m 6.5199103,0 0.842922,0.84229 H 12.51511 Z m -9.7801837,6.5e-4 0.8416482,0.84165 H 2.7362 c 0.2801979,-0.28044 0.5603075,-0.56104 0.8403753,-0.84165 z m 6.5199097,0 0.841012,0.84165 h -1.68266 z"
       id="rect1085"
       inkscape:connector-curvature="0"
       sodipodi:nodetypes="cccccccsssccssccsssccccccccccccccccccccccccccccccccccccccccccccccccccccccccccccccccscccssscccccccccccccccccccccccccccccccsssccccccccccccccccccccccccccccccccccccccccccccccccccccccccccc" />
  </g>
</svg>
