<?xml version="1.0" encoding="UTF-8" standalone="no"?>
<!-- Created with Inkscape (http://www.inkscape.org/) -->

<svg
   xmlns:dc="http://purl.org/dc/elements/1.1/"
   xmlns:cc="http://creativecommons.org/ns#"
   xmlns:rdf="http://www.w3.org/1999/02/22-rdf-syntax-ns#"
   xmlns:svg="http://www.w3.org/2000/svg"
   xmlns="http://www.w3.org/2000/svg"
   xmlns:sodipodi="http://sodipodi.sourceforge.net/DTD/sodipodi-0.dtd"
   xmlns:inkscape="http://www.inkscape.org/namespaces/inkscape"
   width="48pt"
   height="48pt"
   viewBox="0 0 16.933334 16.933333"
   version="1.1"
   id="svg979"
   inkscape:version="0.92.4 (5da689c313, 2019-01-14)"
   sodipodi:docname="18 - Watermelon.svg"
   inkscape:export-filename="E:\TR Design Studio Creative\Project Design\TR Creative Design\Icon Design\Project Hiring\Icon Icons\Project - 001\001 - Agriculture And Farming\Line\Export\18 - Watermelon.png"
   inkscape:export-xdpi="768"
   inkscape:export-ydpi="768">
  <defs
     id="defs973" />
  <sodipodi:namedview
     id="base"
     pagecolor="#ffffff"
     bordercolor="#666666"
     borderopacity="1.0"
     inkscape:pageopacity="0.0"
     inkscape:pageshadow="2"
     inkscape:zoom="8.546875"
     inkscape:cx="32"
     inkscape:cy="32"
     inkscape:document-units="pt"
     inkscape:current-layer="layer1"
     showgrid="false"
     units="pt"
     inkscape:window-width="1366"
     inkscape:window-height="716"
     inkscape:window-x="-8"
     inkscape:window-y="-8"
     inkscape:window-maximized="1"
     inkscape:snap-bbox="true"
     inkscape:bbox-nodes="true"
     inkscape:snap-nodes="false"
     showguides="false">
    <inkscape:grid
       type="xygrid"
       id="grid1526" />
    <sodipodi:guide
       position="0.97013909,15.963209"
       orientation="56.666615,0"
       id="guide1528"
       inkscape:locked="false" />
    <sodipodi:guide
       position="0.97013909,0.97016731"
       orientation="0,56.666667"
       id="guide1530"
       inkscape:locked="false" />
    <sodipodi:guide
       position="15.963195,0.97016731"
       orientation="-56.666615,0"
       id="guide1532"
       inkscape:locked="false" />
    <sodipodi:guide
       position="15.963195,15.963209"
       orientation="0,-56.666667"
       id="guide1534"
       inkscape:locked="false" />
  </sodipodi:namedview>
  <metadata
     id="metadata976">
    <rdf:RDF>
      <cc:Work
         rdf:about="">
        <dc:format>image/svg+xml</dc:format>
        <dc:type
           rdf:resource="http://purl.org/dc/dcmitype/StillImage" />
        <dc:title></dc:title>
      </cc:Work>
    </rdf:RDF>
  </metadata>
  <g
     inkscape:label="Layer 1"
     inkscape:groupmode="layer"
     id="layer1"
     transform="translate(0,-280.06668)">
    <path
       style="color:#000000;font-style:normal;font-variant:normal;font-weight:normal;font-stretch:normal;font-size:medium;line-height:normal;font-family:sans-serif;font-variant-ligatures:normal;font-variant-position:normal;font-variant-caps:normal;font-variant-numeric:normal;font-variant-alternates:normal;font-feature-settings:normal;text-indent:0;text-align:start;text-decoration:none;text-decoration-line:none;text-decoration-style:solid;text-decoration-color:#000000;letter-spacing:normal;word-spacing:normal;text-transform:none;writing-mode:lr-tb;direction:ltr;text-orientation:mixed;dominant-baseline:auto;baseline-shift:baseline;text-anchor:start;white-space:normal;shape-padding:0;clip-rule:nonzero;display:inline;overflow:visible;visibility:visible;opacity:1;isolation:auto;mix-blend-mode:normal;color-interpolation:sRGB;color-interpolation-filters:linearRGB;solid-color:#000000;solid-opacity:1;vector-effect:none;fill:#000000;fill-opacity:1;fill-rule:nonzero;stroke:none;stroke-width:0.529167;stroke-linecap:round;stroke-linejoin:round;stroke-miterlimit:4;stroke-dasharray:none;stroke-dashoffset:0;stroke-opacity:1;color-rendering:auto;image-rendering:auto;shape-rendering:auto;text-rendering:auto;enable-background:accumulate"
       d="m 8.7893922,282.33919 v 6.6e-4 c -0.1800504,0.002 -0.3247504,0.14903 -0.3227255,0.32908 0,0.16109 -0.6171024,0.0824 -0.8128615,0.0822 -0.3006903,0 -0.6391237,0.008 -0.9478078,0.18522 -0.2388252,0.13648 -0.4181971,0.39388 -0.4875896,0.72693 -2.9196527,0.15337 -5.248271,2.56846 -5.2482705,5.52576 -1.3e-7,1.22087 0.4014905,2.34625 1.0725696,3.26227 0.00202,0.003 0.00303,0.008 0.00509,0.0124 l 0.00255,-10e-4 c 1.0093294,1.37087 2.6298168,2.2648 4.4602346,2.2648 0.925428,0 1.5200176,-0.1529 2.1712372,-0.4704 0.6909046,0.31287 1.4534953,0.4704 2.2291623,0.4704 1.294579,0 2.559657,-0.4313 3.502877,-1.30873 0.943221,-0.87739 1.549338,-2.19891 1.549338,-3.90451 -7.17e-4,-0.17999 -0.147195,-0.32532 -0.327181,-0.32463 -1.198223,-0.005 -2.38301,0 -3.584355,0 0,-2.93099 -2.2875325,-5.33006 -5.1706118,-5.52199 0.033206,-0.0839 0.083493,-0.12773 0.149587,-0.1655 0.1190711,-0.068 0.3535215,-0.0987 0.6231723,-0.0987 0.2696507,0 0.5582508,0.0277 0.8440519,-0.0267 0.1429004,-0.0272 0.2978829,-0.0791 0.4258452,-0.20434 0.1279622,-0.12536 0.1947811,-0.31727 0.1947811,-0.50286 0.00206,-0.18287 -0.1462158,-0.33178 -0.3290911,-0.32973 z m -1.9490851,1.97773 c 0.058911,0.3977 -0.034096,0.68413 -0.1489502,1.02482 -0.1355641,0.40213 -0.311541,0.89214 -0.1470406,1.50607 0.1453954,0.54262 0.3250161,0.94566 0.4213894,1.31636 0.083429,0.32092 0.1100853,0.62456 0.029279,1.02483 H 6.1859444 c -0.1799868,-6.6e-4 -0.3264608,0.14465 -0.3271814,0.32464 0,1.15296 0.2833696,2.12553 0.7549362,2.90898 l 0.040738,1.64928 c -0.05105,9.7e-4 -0.089542,0.006 -0.143858,0.006 -0.1421153,0 -0.2817468,-0.01 -0.4207529,-0.0217 -0.164177,-0.70802 -0.2597083,-1.29433 -0.2597083,-2.3673 0.00347,-0.18477 -0.147496,-0.33575 -0.3322737,-0.33227 -0.1800624,0.004 -0.322921,0.15221 -0.319543,0.33227 0,0.98284 0.082255,1.61511 0.2176967,2.25653 -0.3101226,-0.0721 -0.6082445,-0.17307 -0.8924288,-0.30108 -0.1650689,-0.61965 -0.4118734,-1.21397 -0.647361,-1.80841 -0.1674862,-0.76055 0.121865,-1.53325 0.453853,-2.20879 0.363849,-0.65749 0.1700058,-1.44724 -0.049014,-2.11968 -0.093838,-0.30905 -0.2438018,-0.5983 -0.3609179,-0.89624 -0.138284,-0.60779 0.2495212,-1.15327 0.3239988,-1.74285 0.4073137,-0.21564 0.8480484,-0.37665 1.313818,-0.47041 0.039907,0.36233 -0.047082,0.63348 -0.1553158,0.95163 -0.1355251,0.39839 -0.3114417,0.88488 -0.1470407,1.49842 0.177944,0.63212 0.3253552,1.15478 0.390199,1.70593 0.048062,0.43312 0.6973319,0.36118 0.6492708,-0.0719 -0.097221,-0.8945 -0.4038299,-1.78063 -0.4112048,-1.80204 -0.1149275,-0.42891 -0.0051,-0.71114 0.1343097,-1.12094 0.1122841,-0.33007 0.2345504,-0.739 0.1833235,-1.24189 0.2232629,-0.0274 0.4431797,-0.0127 0.6588185,-2e-5 z m 0.6607286,0.084 c 0.4023712,0.0825 0.7837519,0.21885 1.1432256,0.39338 -0.071252,0.57855 -0.19868,1.08401 -0.1604082,1.98409 0.022289,0.51958 0.2084728,1.01895 0.3844702,1.47233 0.1107641,0.2888 0.1683176,0.51058 0.078294,0.93825 H 7.6576246 c 0.069227,-0.44802 0.032394,-0.83608 -0.059198,-1.18842 -0.1151603,-0.44296 -0.2924513,-0.8325 -0.4232989,-1.32082 -0.1148277,-0.42854 -0.00506,-0.71516 0.1343102,-1.12859 0.1049995,-0.31146 0.2196182,-0.69011 0.1915978,-1.15022 z m 1.7555769,0.74157 c 0.2130889,0.14471 0.4112178,0.30868 0.5983472,0.4844 -0.1019006,0.34684 -0.1766086,0.74942 -0.050286,1.22089 0.1513437,0.56482 0.3319422,0.97276 0.4258442,1.34246 0.07979,0.31411 0.103583,0.60748 0.02419,0.99873 H 9.6092558 c 0.071535,-0.49185 -0.013434,-0.86334 -0.1317638,-1.17188 -0.1452772,-0.37879 -0.3057626,-0.67394 -0.3418218,-1.26733 -0.034684,-0.56314 0.051007,-1.11887 0.1209424,-1.60727 z m -5.8459817,0.2648 c -0.1202956,0.38371 -0.2400163,0.7675 -0.1756849,1.17505 0.040271,0.38806 0.2891668,0.70903 0.391472,1.08085 0.1588876,0.49971 0.3116967,1.0528 0.1565888,1.5716 -0.048929,0.11567 -0.2102517,0.40359 -0.2654371,0.5538 -0.3207154,0.79704 -0.5665969,1.74442 -0.1604082,2.55698 0.080056,0.19818 0.2131204,0.53625 0.3119046,0.81795 -0.4020727,-0.28774 -0.7573163,-0.63465 -1.055383,-1.02864 -0.1579733,-0.32743 -0.1305167,-0.7269 -0.00764,-1.19225 0.1408509,-0.5401 0.3631172,-1.05515 0.4888626,-1.52069 0.2493005,-1.16158 -0.2009495,-2.12654 -0.5391492,-3.10122 0.2462177,-0.33925 0.5312651,-0.64797 0.8548709,-0.91343 z m 6.9860241,0.8205 c 0.626733,0.82183 1.00255,1.84575 1.00255,2.96118 h -0.48186 c 0.06657,-0.43566 0.03103,-0.81203 -0.05666,-1.15723 -0.112731,-0.44382 -0.288241,-0.83848 -0.425845,-1.35201 -0.04402,-0.16431 -0.04962,-0.3098 -0.03819,-0.45194 z m -8.2775633,0.82114 c 0.27743,0.78233 0.5017318,1.47329 0.3380026,2.23616 -0.1191327,0.43779 -0.33901,0.95284 -0.481224,1.49141 -0.012791,0.0484 -0.020434,0.0992 -0.031827,0.14831 -0.2048795,-0.53986 -0.3220893,-1.12334 -0.3220892,-1.73584 -1e-7,-0.769 0.1819856,-1.49333 0.4971376,-2.14004 z m 4.4519595,2.78934 H 7.225414 c 0.1655393,2.22388 1.8317481,3.58754 3.685565,3.58754 1.853896,0 3.528265,-1.36263 3.688112,-3.58754 h 0.652452 c -0.07763,1.36454 -0.539322,2.41232 -1.282627,3.10377 -0.808537,0.75212 -1.908205,1.13559 -3.057937,1.13559 -1.1497316,0 -2.2493996,-0.38347 -3.0579369,-1.13559 -0.7433048,-0.69145 -1.2043641,-1.73923 -1.2819909,-3.10377 z m 1.2578027,0 h 6.1597951 c -0.138071,1.91312 -1.529794,2.93572 -3.07767,2.93572 -1.5489562,0 -2.9404985,-1.0196 -3.0821251,-2.93572 z m 4.3144661,0.66963 c -0.01207,-2e-5 -0.02423,6.6e-4 -0.03629,0.002 -0.107312,0.01 -0.202862,0.0719 -0.255251,0.16614 l -0.163591,0.28389 c -0.202808,0.37306 0.345217,0.68782 0.565247,0.32464 l 0.163591,-0.28136 c 0.130941,-0.21537 -0.02168,-0.49152 -0.273712,-0.49523 z m -2.2839044,6.6e-4 c -0.011049,-1.3e-4 -0.022097,3e-4 -0.033101,0.001 -0.1073163,0.01 -0.2028637,0.0719 -0.2552525,0.16615 l -0.1635907,0.28389 c -0.2305821,0.38057 0.3527304,0.71559 0.5652474,0.32464 l 0.1610442,-0.28136 c 0.130329,-0.21549 -0.02254,-0.49107 -0.2743485,-0.49458 z m 1.1406794,0.65182 c -0.01126,-1.5e-4 -0.02252,2.8e-4 -0.03374,0.001 -0.107083,0.01 -0.20235,0.0721 -0.254615,0.16613 l -0.163591,0.28135 c -0.207503,0.37396 0.344341,0.69337 0.565248,0.32719 l 0.161044,-0.28136 c 0.130329,-0.21549 -0.02254,-0.49107 -0.274349,-0.49458 z m -3.7129367,2.12985 c 0.041734,0.042 0.080326,0.0879 0.1234886,0.12795 0.1773779,0.16499 0.3690972,0.30885 0.5671572,0.4424 -0.2129926,0.0796 -0.4270551,0.13566 -0.6721861,0.16995 z"
       id="path1393"
       inkscape:connector-curvature="0"
       sodipodi:nodetypes="ccccccscccscsccccccsccccccccccccccscccccccccccccccccscccccccccsccccccccccccccccccccccccccccccccccscccscccsccccscccccccccccccccccccccccccccccc" />
  </g>
</svg>
