<?xml version="1.0" encoding="UTF-8" standalone="no"?>
<!-- Created with Inkscape (http://www.inkscape.org/) -->

<svg
   xmlns:dc="http://purl.org/dc/elements/1.1/"
   xmlns:cc="http://creativecommons.org/ns#"
   xmlns:rdf="http://www.w3.org/1999/02/22-rdf-syntax-ns#"
   xmlns:svg="http://www.w3.org/2000/svg"
   xmlns="http://www.w3.org/2000/svg"
   xmlns:sodipodi="http://sodipodi.sourceforge.net/DTD/sodipodi-0.dtd"
   xmlns:inkscape="http://www.inkscape.org/namespaces/inkscape"
   width="48pt"
   height="48pt"
   viewBox="0 0 16.933334 16.933333"
   version="1.1"
   id="svg979"
   inkscape:version="0.92.4 (5da689c313, 2019-01-14)"
   sodipodi:docname="23 - Onion.svg"
   inkscape:export-filename="E:\TR Design Studio Creative\Project Design\TR Creative Design\Icon Design\Project Hiring\Icon Icons\Project - 001\001 - Agriculture And Farming\Flat\Export\23 - Onion.png"
   inkscape:export-xdpi="768"
   inkscape:export-ydpi="768">
  <defs
     id="defs973" />
  <sodipodi:namedview
     id="base"
     pagecolor="#ffffff"
     bordercolor="#666666"
     borderopacity="1.0"
     inkscape:pageopacity="0.0"
     inkscape:pageshadow="2"
     inkscape:zoom="6.0435533"
     inkscape:cx="31.878521"
     inkscape:cy="32"
     inkscape:document-units="pt"
     inkscape:current-layer="layer1"
     showgrid="false"
     units="pt"
     inkscape:window-width="1366"
     inkscape:window-height="716"
     inkscape:window-x="-8"
     inkscape:window-y="-8"
     inkscape:window-maximized="1"
     inkscape:snap-bbox="true"
     inkscape:bbox-nodes="true"
     inkscape:snap-nodes="false"
     showguides="false">
    <inkscape:grid
       type="xygrid"
       id="grid1526" />
    <sodipodi:guide
       position="0.97013909,15.963209"
       orientation="56.666615,0"
       id="guide1528"
       inkscape:locked="false" />
    <sodipodi:guide
       position="0.97013909,0.97016731"
       orientation="0,56.666667"
       id="guide1530"
       inkscape:locked="false" />
    <sodipodi:guide
       position="15.963195,0.97016731"
       orientation="-56.666615,0"
       id="guide1532"
       inkscape:locked="false" />
    <sodipodi:guide
       position="15.963195,15.963209"
       orientation="0,-56.666667"
       id="guide1534"
       inkscape:locked="false" />
  </sodipodi:namedview>
  <metadata
     id="metadata976">
    <rdf:RDF>
      <cc:Work
         rdf:about="">
        <dc:format>image/svg+xml</dc:format>
        <dc:type
           rdf:resource="http://purl.org/dc/dcmitype/StillImage" />
        <dc:title></dc:title>
      </cc:Work>
    </rdf:RDF>
  </metadata>
  <g
     inkscape:label="Layer 1"
     inkscape:groupmode="layer"
     id="layer1"
     transform="translate(0,-280.06668)">
    <g
       id="g4589"
       transform="matrix(1.2397442,0,0,1.2397442,-0.81441771,-68.489992)"
       style="stroke-width:0.80661803">
      <g
         id="g4574"
         style="stroke-width:0.80661803">
        <path
           style="color:#000000;font-style:normal;font-variant:normal;font-weight:normal;font-stretch:normal;font-size:medium;line-height:normal;font-family:sans-serif;font-variant-ligatures:normal;font-variant-position:normal;font-variant-caps:normal;font-variant-numeric:normal;font-variant-alternates:normal;font-feature-settings:normal;text-indent:0;text-align:start;text-decoration:none;text-decoration-line:none;text-decoration-style:solid;text-decoration-color:#000000;letter-spacing:normal;word-spacing:normal;text-transform:none;writing-mode:lr-tb;direction:ltr;text-orientation:mixed;dominant-baseline:auto;baseline-shift:baseline;text-anchor:start;white-space:normal;shape-padding:0;clip-rule:nonzero;display:inline;overflow:visible;visibility:visible;opacity:1;isolation:auto;mix-blend-mode:normal;color-interpolation:sRGB;color-interpolation-filters:linearRGB;solid-color:#000000;solid-opacity:1;vector-effect:none;fill:#b557a1;fill-opacity:1;fill-rule:nonzero;stroke:none;stroke-width:0.42683536;stroke-linecap:round;stroke-linejoin:round;stroke-miterlimit:4;stroke-dasharray:none;stroke-dashoffset:0;stroke-opacity:1;color-rendering:auto;image-rendering:auto;shape-rendering:auto;text-rendering:auto;enable-background:accumulate"
           d="m 8.6891941,282.51726 a 0.26460979,0.26460979 0 0 0 -0.265625,0.26563 v 1.26367 c -5e-7,0.22378 -0.1971635,0.5059 -0.5664062,0.84765 -0.3692427,0.34176 -0.8762281,0.72631 -1.3574218,1.19532 a 0.26460979,0.26460979 0 0 0 0.1171874,0.44531 c 0.1363744,0.0365 0.4461804,0.20968 0.6894531,0.37305 0.2324777,0.15611 0.3999804,0.28834 0.4160157,0.30078 0.6904035,0.79207 1.116157,1.42646 1.1132813,2.20898 a 0.26460979,0.26460979 0 0 0 0,0.0176 c 0.056833,0.96518 -0.4370877,1.53716 -1.1171876,2.11133 a 0.26460979,0.26460979 0 0 0 -0.083984,0.27148 c 0.045774,0.17082 -0.1542973,0.39451 -0.1542973,0.39451 a 0.26460979,0.26460979 0 0 0 0.1210939,0.44922 c 0.1254353,0.0294 0.2578127,0.0542 0.3945311,0.0762 0.1617557,0.21476 0.3437316,0.42514 0.5644531,0.50196 0.2959394,0.10299 0.5761254,0.12675 0.7382814,0.12695 a 0.26460979,0.26460979 0 0 0 0.00196,0 c 0.1625915,0 0.442326,-0.0239 0.7382818,-0.12695 0.222393,-0.0774 0.408547,-0.28622 0.570312,-0.50391 1.167634,-0.18975 1.928891,-0.66372 2.367188,-1.32226 0.441462,-0.66331 0.55664,-1.47464 0.55664,-2.31446 0.0039,-1.52556 -0.907968,-2.55092 -1.765625,-3.3164 -0.428836,-0.38275 -0.847098,-0.70875 -1.144539,-1.00196 -0.297441,-0.29321 -0.447267,-0.53606 -0.447266,-0.73437 v -1.26367 a 0.26460979,0.26460979 0 0 0 -0.2656246,-0.26563 z"
           id="path2082"
           inkscape:connector-curvature="0"
           inkscape:export-xdpi="826.16193"
           inkscape:export-ydpi="826.16193" />
        <path
           style="color:#000000;font-style:normal;font-variant:normal;font-weight:normal;font-stretch:normal;font-size:medium;line-height:normal;font-family:sans-serif;font-variant-ligatures:normal;font-variant-position:normal;font-variant-caps:normal;font-variant-numeric:normal;font-variant-alternates:normal;font-feature-settings:normal;text-indent:0;text-align:start;text-decoration:none;text-decoration-line:none;text-decoration-style:solid;text-decoration-color:#000000;letter-spacing:normal;word-spacing:normal;text-transform:none;writing-mode:lr-tb;direction:ltr;text-orientation:mixed;dominant-baseline:auto;baseline-shift:baseline;text-anchor:start;white-space:normal;shape-padding:0;clip-rule:nonzero;display:inline;overflow:visible;visibility:visible;opacity:1;isolation:auto;mix-blend-mode:normal;color-interpolation:sRGB;color-interpolation-filters:linearRGB;solid-color:#000000;solid-opacity:1;vector-effect:none;fill:#853e6e;fill-opacity:1;fill-rule:nonzero;stroke:none;stroke-width:0.42683536;stroke-linecap:round;stroke-linejoin:round;stroke-miterlimit:4;stroke-dasharray:none;stroke-dashoffset:0;stroke-opacity:1;color-rendering:auto;image-rendering:auto;shape-rendering:auto;text-rendering:auto;enable-background:accumulate"
           d="m 7.1598646,285.49654 c -0.2153769,0.18328 -0.439656,0.37857 -0.6599081,0.59324 a 0.26460979,0.26460979 0 0 0 0.1167889,0.44494 c 0.1363742,0.0365 0.4466074,0.20973 0.6898801,0.3731 0.2324778,0.15611 0.3999601,0.28832 0.4159954,0.30076 0.6904035,0.79207 1.1159861,1.42665 1.1131103,2.20917 a 0.26460979,0.26460979 0 0 0 0,0.0176 c 0.056833,0.96518 -0.4371446,1.53733 -1.1172444,2.1115 a 0.26460979,0.26460979 0 0 0 -0.084232,0.2713 c 0.045774,0.17082 -0.1539957,0.39429 -0.153996,0.39429 a 0.26460979,0.26460979 0 0 0 0.1209231,0.44958 c 0.1254353,0.0294 0.2580894,0.054 0.3948078,0.076 0.1247302,0.1656 0.2618259,0.32671 0.419096,0.42788 0.066506,-0.0616 0.1329818,-0.12801 0.1979206,-0.20516 0.1548672,-0.18395 0.2056653,-0.4703 0.2423625,-0.74931 0.9381509,-0.78457 1.3730452,-1.61781 1.4247192,-2.44946 0.052,-0.83686 -0.263325,-1.63339 -0.6919474,-2.39468 -0.5948574,-1.06242 -1.514705,-1.57716 -2.4282755,-1.87069 z"
           id="path2117"
           inkscape:connector-curvature="0"
           inkscape:export-xdpi="826.16193"
           inkscape:export-ydpi="826.16193" />
        <path
           style="color:#000000;font-style:normal;font-variant:normal;font-weight:normal;font-stretch:normal;font-size:medium;line-height:normal;font-family:sans-serif;font-variant-ligatures:normal;font-variant-position:normal;font-variant-caps:normal;font-variant-numeric:normal;font-variant-alternates:normal;font-feature-settings:normal;text-indent:0;text-align:start;text-decoration:none;text-decoration-line:none;text-decoration-style:solid;text-decoration-color:#000000;letter-spacing:normal;word-spacing:normal;text-transform:none;writing-mode:lr-tb;direction:ltr;text-orientation:mixed;dominant-baseline:auto;baseline-shift:baseline;text-anchor:start;white-space:normal;shape-padding:0;clip-rule:nonzero;display:inline;overflow:visible;visibility:visible;opacity:1;isolation:auto;mix-blend-mode:normal;color-interpolation:sRGB;color-interpolation-filters:linearRGB;solid-color:#000000;solid-opacity:1;vector-effect:none;fill:#dd94c1;fill-opacity:1;fill-rule:nonzero;stroke:none;stroke-width:0.42683536;stroke-linecap:round;stroke-linejoin:round;stroke-miterlimit:4;stroke-dasharray:none;stroke-dashoffset:0;stroke-opacity:1;color-rendering:auto;image-rendering:auto;shape-rendering:auto;text-rendering:auto;enable-background:accumulate"
           d="m 10.057879,285.68051 a 0.26460979,0.26460979 0 0 0 -0.02481,10e-4 0.26460979,0.26460979 0 0 0 -0.2268597,0.36122 c 0.2793867,0.74135 0.5561947,1.65122 0.5550047,3.05666 -3.17e-4,0.35485 0.01648,1.2744 0.0155,2.20296 -6.88e-4,0.65186 -0.01675,1.30961 -0.04599,1.75132 0.100571,-0.0919 0.193257,-0.20305 0.278536,-0.31781 0.09676,-0.0157 0.186276,-0.0362 0.277502,-0.0558 0.01522,-0.41182 0.01861,-0.88914 0.01912,-1.3777 9.79e-4,-0.93556 -0.01581,-1.86687 -0.0155,-2.20296 0.0012,-1.47621 -0.299959,-2.47562 -0.589628,-3.24425 a 0.26460979,0.26460979 0 0 0 -0.242879,-0.17467 z m -1.4841472,0.016 a 0.26460979,0.26460979 0 0 0 -0.026872,5.2e-4 0.26460979,0.26460979 0 0 0 -0.2325439,0.1757 c -0.1435102,0.3898 -0.2927035,0.83342 -0.4061767,1.35341 a 0.26470703,0.26470703 0 0 0 0.5172811,0.11162 c 0.1063342,-0.48727 0.2454751,-0.90263 0.3849894,-1.28157 a 0.26460979,0.26460979 0 0 0 -0.236678,-0.35967 z m 0.7188192,0.12144 a 0.26460979,0.26460979 0 0 0 -0.2594157,0.26975 v 1.45677 a 0.2646484,0.2646484 0 1 0 0.5291666,0 v -1.45676 A 0.26460979,0.26460979 0 0 0 9.292551,285.81796 Z m 1.693437,0.12299 a 0.26460979,0.26460979 0 0 0 -0.206706,0.41806 c 0.483919,0.69005 0.905913,1.52035 0.903821,2.73833 -6.35e-4,0.34415 -0.01329,1.20281 -0.06201,2.05673 -0.02436,0.42695 -0.05752,0.8546 -0.101802,1.21284 -0.0066,0.053 -0.01546,0.0916 -0.02274,0.14159 0.205547,-0.0743 0.396158,-0.15882 0.566373,-0.25631 0.03607,-0.33434 0.06418,-0.6976 0.08527,-1.06712 0.04955,-0.86851 0.06395,-1.72975 0.0646,-2.08566 0.0023,-1.3437 -0.48508,-2.3061 -1.002006,-3.04323 a 0.26460979,0.26460979 0 0 0 -0.224793,-0.11523 z m -1.693437,5.30458 a 0.26460979,0.26460979 0 0 0 -0.2594157,0.2677 v 1.83503 c 0.1034452,0.0128 0.1968367,0.0185 0.2656168,0.0186 a 0.26460979,0.26460979 0 0 0 0.00156,0 c 0.068107,0 0.1602007,-0.006 0.2619994,-0.0186 v -1.83503 a 0.26460979,0.26460979 0 0 0 -0.2697509,-0.26769 z"
           id="path1601"
           inkscape:connector-curvature="0"
           inkscape:export-xdpi="826.16193"
           inkscape:export-ydpi="826.16193" />
        <path
           style="color:#000000;font-style:normal;font-variant:normal;font-weight:normal;font-stretch:normal;font-size:medium;line-height:normal;font-family:sans-serif;font-variant-ligatures:normal;font-variant-position:normal;font-variant-caps:normal;font-variant-numeric:normal;font-variant-alternates:normal;font-feature-settings:normal;text-indent:0;text-align:start;text-decoration:none;text-decoration-line:none;text-decoration-style:solid;text-decoration-color:#000000;letter-spacing:normal;word-spacing:normal;text-transform:none;writing-mode:lr-tb;direction:ltr;text-orientation:mixed;dominant-baseline:auto;baseline-shift:baseline;text-anchor:start;white-space:normal;shape-padding:0;clip-rule:nonzero;display:inline;overflow:visible;visibility:visible;opacity:1;isolation:auto;mix-blend-mode:normal;color-interpolation:sRGB;color-interpolation-filters:linearRGB;solid-color:#000000;solid-opacity:1;vector-effect:none;fill:#853e6e;fill-opacity:1;fill-rule:nonzero;stroke:none;stroke-width:0.42683536;stroke-linecap:round;stroke-linejoin:round;stroke-miterlimit:4;stroke-dasharray:none;stroke-dashoffset:0;stroke-opacity:1;color-rendering:auto;image-rendering:auto;shape-rendering:auto;text-rendering:auto;enable-background:accumulate"
           d="m 8.6889703,282.51739 c -0.146929,-5.3e-4 -0.2661788,0.11869 -0.2656168,0.26562 v 1.05833 c -5.556e-4,-0.14693 0.1186878,-0.26617 0.2656168,-0.26561 0.3478593,0 0.4283974,0.12183 0.4283974,0.47077 -8e-7,0.1983 0.1495592,0.44111 0.4470014,0.73432 0.2974409,0.29321 0.7158049,0.61926 1.1446329,1.00201 0.857657,0.76548 1.769684,1.79103 1.765784,3.31659 0,0.83982 -0.115093,1.65128 -0.556555,2.31459 -0.438297,0.65854 -1.199664,1.13213 -2.367298,1.32188 -0.1617649,0.21769 -0.3481136,0.42645 -0.5705078,0.50385 -0.071527,0.0249 -0.1415986,0.0451 -0.2098061,0.0615 0.2141048,0.0515 0.4051702,0.0655 0.528133,0.0656 6.879e-4,0 0.00138,0 0.00206,0 0.162592,0 0.4419843,-0.0241 0.7379389,-0.12712 0.222395,-0.0774 0.408743,-0.28616 0.570508,-0.50385 1.167634,-0.18975 1.929001,-0.66334 2.367298,-1.32188 0.441462,-0.66331 0.556555,-1.47477 0.556555,-2.31459 0.0039,-1.52556 -0.908127,-2.55111 -1.765784,-3.31659 -0.428828,-0.38275 -0.847192,-0.7088 -1.144633,-1.00201 -0.297442,-0.29321 -0.447002,-0.53602 -0.447001,-0.73432 v -0.20516 -1.05833 c 0,-0.157 -0.108108,-0.26562 -0.2656134,-0.26562 H 8.8517509 Z"
           id="path2096"
           inkscape:connector-curvature="0"
           sodipodi:nodetypes="cccccccccccccccccccccccccc"
           inkscape:export-xdpi="826.16193"
           inkscape:export-ydpi="826.16193" />
      </g>
      <g
         id="g4568"
         style="stroke-width:0.80661803">
        <path
           style="color:#000000;font-style:normal;font-variant:normal;font-weight:normal;font-stretch:normal;font-size:medium;line-height:normal;font-family:sans-serif;font-variant-ligatures:normal;font-variant-position:normal;font-variant-caps:normal;font-variant-numeric:normal;font-variant-alternates:normal;font-feature-settings:normal;text-indent:0;text-align:start;text-decoration:none;text-decoration-line:none;text-decoration-style:solid;text-decoration-color:#000000;letter-spacing:normal;word-spacing:normal;text-transform:none;writing-mode:lr-tb;direction:ltr;text-orientation:mixed;dominant-baseline:auto;baseline-shift:baseline;text-anchor:start;white-space:normal;shape-padding:0;clip-rule:nonzero;display:inline;overflow:visible;visibility:visible;opacity:1;isolation:auto;mix-blend-mode:normal;color-interpolation:sRGB;color-interpolation-filters:linearRGB;solid-color:#000000;solid-opacity:1;vector-effect:none;fill:#b557a1;fill-opacity:1;fill-rule:nonzero;stroke:none;stroke-width:0.42683536;stroke-linecap:round;stroke-linejoin:round;stroke-miterlimit:4;stroke-dasharray:none;stroke-dashoffset:0;stroke-opacity:1;color-rendering:auto;image-rendering:auto;shape-rendering:auto;text-rendering:auto;enable-background:accumulate"
           d="m 2.8610691,283.9821 a 0.26460979,0.26460979 0 0 0 -0.1171875,0.0352 l -0.9414063,0.54297 h -0.00195 a 0.26460979,0.26460979 0 0 0 -0.1484375,0.13672 0.26460979,0.26460979 0 0 0 -0.00195,0.002 0.26460979,0.26460979 0 0 0 -0.00781,0.0234 0.26460979,0.26460979 0 0 0 -0.00586,0.0195 0.26460979,0.26460979 0 0 0 -0.00195,0.006 0.26460979,0.26460979 0 0 0 0,0.002 0.26460979,0.26460979 0 0 0 -0.00586,0.0234 0.26460979,0.26460979 0 0 0 0,0.002 0.26460979,0.26460979 0 0 0 -0.00195,0.0234 0.26460979,0.26460979 0 0 0 0,0.004 0.26460979,0.26460979 0 0 0 0.058594,0.17773 l 0.5644524,0.98047 c 0.087862,0.15218 0.083034,0.4111 -0.019531,0.7832 -0.1025654,0.37211 -0.289648,0.83028 -0.4570313,1.33789 -0.3347665,1.01522 -0.5920003,2.27063 0.1230469,3.50196 0.3907471,0.67679 0.861303,1.27844 1.5292969,1.60937 0.6633934,0.32865 1.5024795,0.35594 2.5332033,-0.0351 0.2317104,0.0953 0.477054,0.18312 0.6894531,0.14257 0.2887832,-0.0551 0.5258313,-0.1679 0.6582031,-0.24414 0.132609,-0.0766 0.3488786,-0.22665 0.5410156,-0.44922 0.1411822,-0.16354 0.1872485,-0.41798 0.2207032,-0.66601 0.8552506,-0.69749 1.2517202,-1.4384 1.2988282,-2.17774 0.047403,-0.74396 -0.2401123,-1.45211 -0.6308595,-2.1289 -0.7088204,-1.23493 -1.9241096,-1.63973 -2.9707034,-1.85742 -0.5232966,-0.10885 -1.0131827,-0.17622 -1.3867185,-0.27344 -0.3735359,-0.0972 -0.59964,-0.22087 -0.6875001,-0.37305 l -0.585951,-1.01594 A 0.26460979,0.26460979 0 0 0 2.8610691,283.9821 Z"
           id="path2114"
           inkscape:connector-curvature="0"
           inkscape:export-xdpi="826.16193"
           inkscape:export-ydpi="826.16193" />
        <circle
           style="display:inline;opacity:1;vector-effect:none;fill:#853e6e;fill-opacity:1;stroke:none;stroke-width:0.4268353;stroke-linecap:round;stroke-linejoin:round;stroke-miterlimit:4;stroke-dasharray:none;stroke-dashoffset:0;stroke-opacity:1"
           id="path2137"
           cx="5.2693782"
           cy="289.59106"
           r="2.7152309"
           inkscape:export-xdpi="826.16193"
           inkscape:export-ydpi="826.16193" />
        <path
           style="color:#000000;font-style:normal;font-variant:normal;font-weight:normal;font-stretch:normal;font-size:medium;line-height:normal;font-family:sans-serif;font-variant-ligatures:normal;font-variant-position:normal;font-variant-caps:normal;font-variant-numeric:normal;font-variant-alternates:normal;font-feature-settings:normal;text-indent:0;text-align:start;text-decoration:none;text-decoration-line:none;text-decoration-style:solid;text-decoration-color:#000000;letter-spacing:normal;word-spacing:normal;text-transform:none;writing-mode:lr-tb;direction:ltr;text-orientation:mixed;dominant-baseline:auto;baseline-shift:baseline;text-anchor:start;white-space:normal;shape-padding:0;clip-rule:nonzero;display:inline;overflow:visible;visibility:visible;opacity:1;isolation:auto;mix-blend-mode:normal;color-interpolation:sRGB;color-interpolation-filters:linearRGB;solid-color:#000000;solid-opacity:1;vector-effect:none;fill:#dd94c1;fill-opacity:1;fill-rule:nonzero;stroke:none;stroke-width:0.42683536;stroke-linecap:round;stroke-linejoin:round;stroke-miterlimit:4;stroke-dasharray:none;stroke-dashoffset:0;stroke-opacity:1;color-rendering:auto;image-rendering:auto;shape-rendering:auto;text-rendering:auto;enable-background:accumulate"
           d="m 6.0856785,286.74968 c -0.7267115,-0.18307 -1.530068,-0.0914 -2.2363282,0.31641 -1.4125201,0.81552 -1.9242668,2.60143 -1.1269531,3.98242 0.3986589,0.6905 1.0495811,1.14946 1.7753907,1.33203 a 0.26460979,0.26460979 0 1 0 0.1289064,-0.51172 c -0.5953547,-0.14975 -1.1223352,-0.52314 -1.4472658,-1.08593 -0.6498562,-1.12559 -0.2387596,-2.58096 0.9335936,-3.25782 1.1723529,-0.67686 2.6392024,-0.30527 3.2890627,0.82032 0.3249327,0.5628 0.3847841,1.2064 0.216797,1.79687 a 0.26460979,0.26460979 0 1 0 0.5078124,0.14453 c 0.2047967,-0.71985 0.1330359,-1.51458 -0.265625,-2.20508 -0.3986591,-0.69049 -1.048679,-1.14895 -1.7753907,-1.33203 z"
           id="path1570"
           inkscape:connector-curvature="0"
           inkscape:export-xdpi="826.16193"
           inkscape:export-ydpi="826.16193" />
        <circle
           r="1.6550578"
           cy="289.59106"
           cx="5.2693782"
           id="circle2139"
           style="display:inline;opacity:1;vector-effect:none;fill:#b94e96;fill-opacity:1;stroke:none;stroke-width:0.4268353;stroke-linecap:round;stroke-linejoin:round;stroke-miterlimit:4;stroke-dasharray:none;stroke-dashoffset:0;stroke-opacity:1"
           inkscape:export-xdpi="826.16193"
           inkscape:export-ydpi="826.16193" />
        <path
           style="color:#000000;font-style:normal;font-variant:normal;font-weight:normal;font-stretch:normal;font-size:medium;line-height:normal;font-family:sans-serif;font-variant-ligatures:normal;font-variant-position:normal;font-variant-caps:normal;font-variant-numeric:normal;font-variant-alternates:normal;font-feature-settings:normal;text-indent:0;text-align:start;text-decoration:none;text-decoration-line:none;text-decoration-style:solid;text-decoration-color:#000000;letter-spacing:normal;word-spacing:normal;text-transform:none;writing-mode:lr-tb;direction:ltr;text-orientation:mixed;dominant-baseline:auto;baseline-shift:baseline;text-anchor:start;white-space:normal;shape-padding:0;clip-rule:nonzero;display:inline;overflow:visible;visibility:visible;opacity:1;isolation:auto;mix-blend-mode:normal;color-interpolation:sRGB;color-interpolation-filters:linearRGB;solid-color:#000000;solid-opacity:1;vector-effect:none;fill:#dd94c1;fill-opacity:1;fill-rule:nonzero;stroke:none;stroke-width:0.42683536;stroke-linecap:round;stroke-linejoin:round;stroke-miterlimit:4;stroke-dasharray:none;stroke-dashoffset:0;stroke-opacity:1;color-rendering:auto;image-rendering:auto;shape-rendering:auto;text-rendering:auto;enable-background:accumulate"
           d="m 5.7399755,287.6696 a 0.26460979,0.26460979 0 0 0 -0.048828,0.52344 c 0.3551439,0.0893 0.6660063,0.3096 0.8593749,0.64453 0.3867396,0.66985 0.1437854,1.53589 -0.5585936,1.94141 -0.7023788,0.40552 -1.5741994,0.18353 -1.9609377,-0.48633 -0.1933686,-0.33492 -0.2271614,-0.71613 -0.1269531,-1.06836 a 0.2649292,0.2649292 0 1 0 -0.5097656,-0.14453 c -0.137018,0.48161 -0.089366,1.01394 0.1777344,1.47656 0.5341939,0.92527 1.7430019,1.22582 2.685547,0.68164 0.9425445,-0.54418 1.2861512,-1.74076 0.7519532,-2.66601 -0.2670974,-0.46263 -0.7038567,-0.77043 -1.1894532,-0.89258 a 0.26460979,0.26460979 0 0 0 -0.080078,-0.01 z"
           id="ellipse1572"
           inkscape:connector-curvature="0"
           inkscape:export-xdpi="826.16193"
           inkscape:export-ydpi="826.16193" />
        <circle
           style="display:inline;opacity:1;vector-effect:none;fill:#853e6e;fill-opacity:1;stroke:none;stroke-width:0.4268353;stroke-linecap:round;stroke-linejoin:round;stroke-miterlimit:4;stroke-dasharray:none;stroke-dashoffset:0;stroke-opacity:1"
           id="circle2141"
           cx="5.2693782"
           cy="289.59106"
           r="0.5506568"
           inkscape:export-xdpi="826.16193"
           inkscape:export-ydpi="826.16193" />
        <path
           style="color:#000000;font-style:normal;font-variant:normal;font-weight:normal;font-stretch:normal;font-size:medium;line-height:normal;font-family:sans-serif;font-variant-ligatures:normal;font-variant-position:normal;font-variant-caps:normal;font-variant-numeric:normal;font-variant-alternates:normal;font-feature-settings:normal;text-indent:0;text-align:start;text-decoration:none;text-decoration-line:none;text-decoration-style:solid;text-decoration-color:#000000;letter-spacing:normal;word-spacing:normal;text-transform:none;writing-mode:lr-tb;direction:ltr;text-orientation:mixed;dominant-baseline:auto;baseline-shift:baseline;text-anchor:start;white-space:normal;shape-padding:0;clip-rule:nonzero;display:inline;overflow:visible;visibility:visible;opacity:1;isolation:auto;mix-blend-mode:normal;color-interpolation:sRGB;color-interpolation-filters:linearRGB;solid-color:#000000;solid-opacity:1;vector-effect:none;fill:#dd94c1;fill-opacity:1;fill-rule:nonzero;stroke:none;stroke-width:0.42683536;stroke-linecap:round;stroke-linejoin:round;stroke-miterlimit:4;stroke-dasharray:none;stroke-dashoffset:0;stroke-opacity:1;color-rendering:auto;image-rendering:auto;shape-rendering:auto;text-rendering:auto;enable-background:accumulate"
           d="m 4.921616,288.92351 c -0.3550734,0.205 -0.4904494,0.66396 -0.2851562,1.01953 a 0.26515121,0.26515121 0 1 0 0.4589843,-0.26562 c -0.057832,-0.10017 -0.025061,-0.23054 0.089844,-0.29688 0.1148926,-0.0663 0.2449081,-0.0298 0.3027344,0.0703 a 0.26460979,0.26460979 0 1 0 0.4570312,-0.26367 C 5.7397567,288.83164 5.276702,288.71849 4.9216163,288.9235 Z"
           id="ellipse1574"
           inkscape:connector-curvature="0"
           inkscape:export-xdpi="826.16193"
           inkscape:export-ydpi="826.16193" />
      </g>
    </g>
  </g>
</svg>
