<?xml version="1.0" encoding="UTF-8" standalone="no"?>
<!-- Created with Inkscape (http://www.inkscape.org/) -->

<svg
   xmlns:dc="http://purl.org/dc/elements/1.1/"
   xmlns:cc="http://creativecommons.org/ns#"
   xmlns:rdf="http://www.w3.org/1999/02/22-rdf-syntax-ns#"
   xmlns:svg="http://www.w3.org/2000/svg"
   xmlns="http://www.w3.org/2000/svg"
   xmlns:sodipodi="http://sodipodi.sourceforge.net/DTD/sodipodi-0.dtd"
   xmlns:inkscape="http://www.inkscape.org/namespaces/inkscape"
   width="48pt"
   height="48pt"
   viewBox="0 0 16.933334 16.933333"
   version="1.1"
   id="svg979"
   inkscape:version="0.92.4 (5da689c313, 2019-01-14)"
   sodipodi:docname="3 - Fertilizer.svg"
   inkscape:export-filename="E:\TR Design Studio Creative\Project Design\TR Creative Design\Icon Design\Project Hiring\Icon Icons\Project - 001\001 - Agriculture And Farming\Flat\Export\3 - Fertilizer.png"
   inkscape:export-xdpi="768"
   inkscape:export-ydpi="768">
  <defs
     id="defs973" />
  <sodipodi:namedview
     id="base"
     pagecolor="#ffffff"
     bordercolor="#666666"
     borderopacity="1.0"
     inkscape:pageopacity="0.0"
     inkscape:pageshadow="2"
     inkscape:zoom="6.0435533"
     inkscape:cx="32"
     inkscape:cy="32"
     inkscape:document-units="pt"
     inkscape:current-layer="layer1"
     showgrid="false"
     units="pt"
     inkscape:window-width="1366"
     inkscape:window-height="716"
     inkscape:window-x="-8"
     inkscape:window-y="-8"
     inkscape:window-maximized="1"
     inkscape:snap-bbox="true"
     inkscape:bbox-nodes="true"
     inkscape:snap-nodes="false"
     showguides="false">
    <inkscape:grid
       type="xygrid"
       id="grid1526" />
    <sodipodi:guide
       position="0.97013909,15.963209"
       orientation="56.666615,0"
       id="guide1528"
       inkscape:locked="false" />
    <sodipodi:guide
       position="0.97013909,0.97016731"
       orientation="0,56.666667"
       id="guide1530"
       inkscape:locked="false" />
    <sodipodi:guide
       position="15.963195,0.97016731"
       orientation="-56.666615,0"
       id="guide1532"
       inkscape:locked="false" />
    <sodipodi:guide
       position="15.963195,15.963209"
       orientation="0,-56.666667"
       id="guide1534"
       inkscape:locked="false" />
  </sodipodi:namedview>
  <metadata
     id="metadata976">
    <rdf:RDF>
      <cc:Work
         rdf:about="">
        <dc:format>image/svg+xml</dc:format>
        <dc:type
           rdf:resource="http://purl.org/dc/dcmitype/StillImage" />
        <dc:title></dc:title>
      </cc:Work>
    </rdf:RDF>
  </metadata>
  <g
     inkscape:label="Layer 1"
     inkscape:groupmode="layer"
     id="layer1"
     transform="translate(0,-280.06668)">
    <g
       transform="matrix(1.2317123,0,0,1.2317123,0.64734527,-15.235282)"
       style="display:inline;stroke-width:0.81187791"
       id="g2206">
      <g
         id="g1591"
         style="stroke-width:0.81187791">
        <path
           style="color:#000000;font-style:normal;font-variant:normal;font-weight:normal;font-stretch:normal;font-size:medium;line-height:normal;font-family:sans-serif;font-variant-ligatures:normal;font-variant-position:normal;font-variant-caps:normal;font-variant-numeric:normal;font-variant-alternates:normal;font-feature-settings:normal;text-indent:0;text-align:start;text-decoration:none;text-decoration-line:none;text-decoration-style:solid;text-decoration-color:#000000;letter-spacing:normal;word-spacing:normal;text-transform:none;writing-mode:lr-tb;direction:ltr;text-orientation:mixed;dominant-baseline:auto;baseline-shift:baseline;text-anchor:start;white-space:normal;shape-padding:0;clip-rule:nonzero;display:inline;overflow:visible;visibility:visible;opacity:1;isolation:auto;mix-blend-mode:normal;color-interpolation:sRGB;color-interpolation-filters:linearRGB;solid-color:#000000;solid-opacity:1;vector-effect:none;fill:#a1887f;fill-opacity:1;fill-rule:nonzero;stroke:none;stroke-width:0.42961898;stroke-linecap:round;stroke-linejoin:round;stroke-miterlimit:4;stroke-dasharray:none;stroke-dashoffset:0;stroke-opacity:1;color-rendering:auto;image-rendering:auto;shape-rendering:auto;text-rendering:auto;enable-background:accumulate"
           d="m 1.8515625,240.53712 c -0.1714449,6.6e-4 -0.2970101,0.16169 -0.2558594,0.32812 l 0.2558594,1.04297 v 0.48242 c 5.763e-4,0.0697 0.028652,0.13641 0.078125,0.18555 0.1776608,0.17763 0.355892,0.3559 0.5332069,0.5333 -0.064978,0.1102 -0.1296462,0.19468 -0.1972656,0.375 -0.2138633,0.5703 -0.4140625,1.52893 -0.4140625,3.15429 0,1.62537 0.2001994,2.58595 0.4140625,3.15625 0.067475,0.17994 0.1304559,0.2649 0.1953125,0.375 l -0.5292969,0.51367 c -0.05115,0.0498 -0.080027,0.11809 -0.080078,0.18946 v 0.50186 l -0.2558594,1.00391 c -0.042668,0.16712 0.083383,0.32973 0.2558594,0.33007 H 10.84766 c 0.172251,6.1e-4 0.299157,-0.1609 0.257813,-0.32812 l -0.257813,-1.05078 v -0.45703 c -5.1e-5,-0.0714 -0.02893,-0.13969 -0.08008,-0.18946 l -0.529297,-0.51367 c -6.63e-4,-6.7e-4 -0.0013,-0.001 -0.002,-0.002 0.06551,-0.11248 0.128674,-0.20182 0.197266,-0.38672 0.213366,-0.57515 0.414062,-1.53966 0.414062,-3.1582 0,-1.61855 -0.20009,-2.57445 -0.414062,-3.14258 -0.06735,-0.17884 -0.128589,-0.26346 -0.19336,-0.37305 0.176279,-0.17692 0.352934,-0.35424 0.529343,-0.5313 0.04947,-0.0491 0.07755,-0.11582 0.07813,-0.18555 v -0.46093 l 0.257813,-1.06446 c 0.04134,-0.16722 -0.08556,-0.32873 -0.257813,-0.32812 z"
           id="path1465"
           inkscape:connector-curvature="0"
           sodipodi:nodetypes="cccccccscccccccccccccccscccccccc" />
        <path
           style="color:#000000;font-style:normal;font-variant:normal;font-weight:normal;font-stretch:normal;font-size:medium;line-height:normal;font-family:sans-serif;font-variant-ligatures:normal;font-variant-position:normal;font-variant-caps:normal;font-variant-numeric:normal;font-variant-alternates:normal;font-feature-settings:normal;text-indent:0;text-align:start;text-decoration:none;text-decoration-line:none;text-decoration-style:solid;text-decoration-color:#000000;letter-spacing:normal;word-spacing:normal;text-transform:none;writing-mode:lr-tb;direction:ltr;text-orientation:mixed;dominant-baseline:auto;baseline-shift:baseline;text-anchor:start;white-space:normal;shape-padding:0;clip-rule:nonzero;display:inline;overflow:visible;visibility:visible;opacity:1;isolation:auto;mix-blend-mode:normal;color-interpolation:sRGB;color-interpolation-filters:linearRGB;solid-color:#000000;solid-opacity:1;vector-effect:none;fill:#8d6e63;fill-opacity:1;fill-rule:nonzero;stroke:none;stroke-width:1.62375677;stroke-linecap:round;stroke-linejoin:round;stroke-miterlimit:4;stroke-dasharray:none;stroke-dashoffset:0;stroke-opacity:1;color-rendering:auto;image-rendering:auto;shape-rendering:auto;text-rendering:auto;enable-background:accumulate"
           d="m 6.9941406,-165.40234 c -0.098689,5.3e-4 -0.1967571,0.0157 -0.2910156,0.0449 -0.507192,0.15561 -0.8046217,0.68018 -0.6777344,1.19531 l 0.6035156,2.43555 0.3691407,1.50586 v 1.82226 c 0.00212,0.26345 0.1080982,0.51542 0.2949219,0.70117 l 2,2.00196 c 0.1876695,0.18873 0.4428277,0.29487 0.7089842,0.29492 h 4.001953 c 1.304853,-0.0282 1.304853,-1.97182 0,-2 h -3.58789 l -1.4179691,-1.41016 v -0.55859 l 30.0000001,0.0391 v 0.51953 l -1.410156,1.41016 h -3.585938 c -1.304853,0.0282 -1.304853,1.97182 0,2 h 4 c 0.266157,-5e-5 0.521315,-0.10619 0.708985,-0.29492 l 1.992187,-2.00196 c 0.187545,-0.18544 0.294246,-0.43746 0.296875,-0.70119 v -1.74218 l 0.972656,-4.02149 c 0.220231,-0.82191 -0.239067,-1.24041 -1.021229,-1.24041 H 6.9980469 6.9941369 Z m 2.9042969,36.12695 c -0.2250744,0.0228 -0.4357612,0.12128 -0.5976563,0.2793 l -2,1.9414 c -0.1935334,0.18827 -0.3027194,0.4468 -0.3027343,0.7168 v 1.77148 l -0.9726563,3.92774 c -0.2607309,0.97306 0.2925188,1.24073 0.9726611,1.24073 h 33.9999973 0.0039 c 0.0026,1e-5 0.0052,1e-5 0.0078,0 0.646322,-0.005 1.118101,-0.6128 0.96289,-1.24023 l -0.310547,-1.26758 -0.664062,-2.75195 v -1.67969 c 4.99e-4,-0.26972 -0.107966,-0.5282 -0.300781,-0.7168 l -2.001954,-1.9414 c -0.186332,-0.17922 -0.434827,-0.27932 -0.693359,-0.2793 h -4 c -1.363604,-0.0306 -1.363604,2.03061 0,2 h 3.59375 l 1.402344,1.35742 v 0.44531 l -30.0000004,0.041 v -0.48633 l 1.4101564,-1.35742 h 3.595703 c 1.363604,0.0306 1.363604,-2.03061 0,-2 h -4.001953 c -0.034482,-0.002 -0.069034,-0.002 -0.1035158,0 z"
           transform="matrix(0.26458333,0,0,0.26458333,0,284.3)"
           id="path902"
           inkscape:connector-curvature="0"
           sodipodi:nodetypes="ccccccccccccccccccccccccccccccccccccccccccccccccccccccccccc" />
        <path
           style="color:#000000;font-style:normal;font-variant:normal;font-weight:normal;font-stretch:normal;font-size:medium;line-height:normal;font-family:sans-serif;font-variant-ligatures:normal;font-variant-position:normal;font-variant-caps:normal;font-variant-numeric:normal;font-variant-alternates:normal;font-feature-settings:normal;text-indent:0;text-align:start;text-decoration:none;text-decoration-line:none;text-decoration-style:solid;text-decoration-color:#000000;letter-spacing:normal;word-spacing:normal;text-transform:none;writing-mode:lr-tb;direction:ltr;text-orientation:mixed;dominant-baseline:auto;baseline-shift:baseline;text-anchor:start;white-space:normal;shape-padding:0;clip-rule:nonzero;display:inline;overflow:visible;visibility:visible;opacity:1;isolation:auto;mix-blend-mode:normal;color-interpolation:sRGB;color-interpolation-filters:linearRGB;solid-color:#000000;solid-opacity:1;vector-effect:none;fill:#8d6e63;fill-opacity:1;fill-rule:nonzero;stroke:none;stroke-width:1.62375677;stroke-linecap:round;stroke-linejoin:round;stroke-miterlimit:4;stroke-dasharray:none;stroke-dashoffset:0;stroke-opacity:1;color-rendering:auto;image-rendering:auto;shape-rendering:auto;text-rendering:auto;enable-background:accumulate"
           d="m 7.0292969,-144.40234 c -0.01983,0.65516 -0.03125,1.33722 -0.03125,2.06054 0,0.68151 0.011635,1.32034 0.029297,1.94141 h 0.9746093 a 1.0001006,1.0001006 0 0 0 0.4433594,-0.10352 l 1.9999994,-1.0039 a 1.0001006,1.0001006 0 0 0 0,-1.78711 l -1.9999994,-0.9961 a 1.0001006,1.0001006 0 0 0 -0.4433594,-0.11132 z"
           transform="matrix(0.26458333,0,0,0.26458333,0,284.3)"
           id="path920"
           inkscape:connector-curvature="0" />
        <path
           style="color:#000000;font-style:normal;font-variant:normal;font-weight:normal;font-stretch:normal;font-size:medium;line-height:normal;font-family:sans-serif;font-variant-ligatures:normal;font-variant-position:normal;font-variant-caps:normal;font-variant-numeric:normal;font-variant-alternates:normal;font-feature-settings:normal;text-indent:0;text-align:start;text-decoration:none;text-decoration-line:none;text-decoration-style:solid;text-decoration-color:#000000;letter-spacing:normal;word-spacing:normal;text-transform:none;writing-mode:lr-tb;direction:ltr;text-orientation:mixed;dominant-baseline:auto;baseline-shift:baseline;text-anchor:start;white-space:normal;shape-padding:0;clip-rule:nonzero;display:inline;overflow:visible;visibility:visible;opacity:1;isolation:auto;mix-blend-mode:normal;color-interpolation:sRGB;color-interpolation-filters:linearRGB;solid-color:#000000;solid-opacity:1;vector-effect:none;fill:#735a51;fill-opacity:1;fill-rule:nonzero;stroke:none;stroke-width:1.62375677;stroke-linecap:round;stroke-linejoin:round;stroke-miterlimit:4;stroke-dasharray:none;stroke-dashoffset:0;stroke-opacity:1;color-rendering:auto;image-rendering:auto;shape-rendering:auto;text-rendering:auto;enable-background:accumulate"
           d="m 6.9980469,-165.4023 c -0.6479811,0.002 -1.1223245,0.6112 -0.9667969,1.24023 l 0.6875,2.80273 h 27.973677 c 2.009688,0 2.307573,0.93432 2.307573,2.9609 -0.0022,0.26344 -0.109902,0.5156 -0.296875,0.70117 -0.09845,0.0988 -0.196462,0.19804 -0.294922,0.29688 h -2.40625 c -1.304855,0.0265 -1.304855,1.97184 0,2 H 34.875 c 0.183197,0.30092 0.364604,0.60598 0.558594,1.12109 0.808713,2.14727 1.564453,5.76156 1.564453,11.87891 0,6.11732 -0.758031,9.76175 -1.564453,11.93555 -0.203082,0.54745 -0.393764,0.86979 -0.585938,1.18945 h -0.845703 c -1.363604,-0.0302 -1.363604,2.03058 0,2 h 2.466797 l 0.228516,0.2207 c 0.193322,0.18822 0.302545,0.44694 0.302734,0.7168 v 1.72656 l 0.972656,3.97266 c 0.156246,0.63201 -0.321637,1.24254 -0.972656,1.24023 h 4 c 0.651031,0.002 1.128913,-0.60822 0.972656,-1.24023 L 41,-124.61133 v -1.72656 c -1.93e-4,-0.26986 -0.109412,-0.52869 -0.302734,-0.7168 l -2.001954,-1.9414 c -0.0025,-0.003 -0.0052,-0.004 -0.0078,-0.008 0.247597,-0.42512 0.486848,-0.7621 0.746094,-1.46093 0.806422,-2.1738 1.564453,-5.81823 1.564453,-11.93555 0,-6.11735 -0.75574,-9.73164 -1.564453,-11.87891 -0.254551,-0.67593 -0.485665,-0.99595 -0.730469,-1.41015 6.56e-4,-6.5e-4 0.0013,-0.001 0.002,-0.002 0.0017,-0.002 0.0042,-0.002 0.0059,-0.004 l 1.992187,-2.00196 c 0.18754,-0.18557 0.294229,-0.43743 0.296875,-0.70117 v -0.93164 -0.81054 l 0.292969,-1.21485 0.679687,-2.80859 c 0.156147,-0.6317 -0.321731,-1.24222 -0.972755,-1.23992 -11.333984,1e-5 -22.667969,0.001 -34.0019531,0.002 z"
           transform="matrix(0.26458333,0,0,0.26458333,0,284.3)"
           id="path1516"
           inkscape:connector-curvature="0"
           sodipodi:nodetypes="cccccccccccsccccccccccccccccccscccccccccccc" />
      </g>
      <g
         style="display:inline;stroke-width:0.81187791"
         id="g1585">
        <path
           style="color:#000000;font-style:normal;font-variant:normal;font-weight:normal;font-stretch:normal;font-size:medium;line-height:normal;font-family:sans-serif;font-variant-ligatures:normal;font-variant-position:normal;font-variant-caps:normal;font-variant-numeric:normal;font-variant-alternates:normal;font-feature-settings:normal;text-indent:0;text-align:start;text-decoration:none;text-decoration-line:none;text-decoration-style:solid;text-decoration-color:#000000;letter-spacing:normal;word-spacing:normal;text-transform:none;writing-mode:lr-tb;direction:ltr;text-orientation:mixed;dominant-baseline:auto;baseline-shift:baseline;text-anchor:start;white-space:normal;shape-padding:0;clip-rule:nonzero;display:inline;overflow:visible;visibility:visible;opacity:1;isolation:auto;mix-blend-mode:normal;color-interpolation:sRGB;color-interpolation-filters:linearRGB;solid-color:#000000;solid-opacity:1;vector-effect:none;fill:#d9edfc;fill-opacity:1;fill-rule:nonzero;stroke:none;stroke-width:0.42961898;stroke-linecap:round;stroke-linejoin:round;stroke-miterlimit:4;stroke-dasharray:none;stroke-dashoffset:0;stroke-opacity:1;color-rendering:auto;image-rendering:auto;shape-rendering:auto;text-rendering:auto;enable-background:accumulate"
           d="M 4.453125,243.71289 A 0.26460996,0.26460996 0 0 0 4.3164062,243.75 c 0,0 -0.080517,0.0561 -0.1445312,0.13477 -0.064014,0.0787 -0.1357937,0.19517 -0.2050781,0.36718 -0.1385689,0.34404 -0.2617188,0.906 -0.2617188,1.8418 0,0.9358 0.1231499,1.49776 0.2617188,1.8418 0.069284,0.17201 0.1410637,0.29047 0.2050781,0.36914 0.064014,0.0787 0.1445312,0.13281 0.1445312,0.13281 a 0.26460996,0.26460996 0 0 0 0.1367188,0.0371 h 3.7929688 a 0.26460996,0.26460996 0 0 0 0.1367187,-0.0371 c 0,0 0.080517,-0.0541 0.1445313,-0.13281 0.064014,-0.0787 0.1377467,-0.19713 0.2070312,-0.36914 0.1385689,-0.34404 0.2617188,-0.906 0.2617188,-1.8418 0,-0.9358 -0.1231499,-1.49776 -0.2617188,-1.8418 C 8.66509,244.07994 8.5913581,243.96343 8.5273438,243.88477 8.4633294,243.8061 8.3828125,243.75 8.3828125,243.75 a 0.26460996,0.26460996 0 0 0 -0.1367187,-0.0371 z"
           id="path1514"
           inkscape:connector-curvature="0" />
        <path
           style="color:#000000;font-style:normal;font-variant:normal;font-weight:normal;font-stretch:normal;font-size:medium;line-height:normal;font-family:sans-serif;font-variant-ligatures:normal;font-variant-position:normal;font-variant-caps:normal;font-variant-numeric:normal;font-variant-alternates:normal;font-feature-settings:normal;text-indent:0;text-align:start;text-decoration:none;text-decoration-line:none;text-decoration-style:solid;text-decoration-color:#000000;letter-spacing:normal;word-spacing:normal;text-transform:none;writing-mode:lr-tb;direction:ltr;text-orientation:mixed;dominant-baseline:auto;baseline-shift:baseline;text-anchor:start;white-space:normal;shape-padding:0;clip-rule:nonzero;display:inline;overflow:visible;visibility:visible;opacity:1;isolation:auto;mix-blend-mode:normal;color-interpolation:sRGB;color-interpolation-filters:linearRGB;solid-color:#000000;solid-opacity:1;vector-effect:none;fill:#d9edfc;fill-opacity:1;fill-rule:nonzero;stroke:none;stroke-width:0.42961898;stroke-linecap:round;stroke-linejoin:round;stroke-miterlimit:4;stroke-dasharray:none;stroke-dashoffset:0;stroke-opacity:1;color-rendering:auto;image-rendering:auto;shape-rendering:auto;text-rendering:auto;enable-background:accumulate"
           d="m 4.7617188,249.00391 a 0.264645,0.264645 0 1 0 0,0.52929 H 7.9375 a 0.264645,0.264645 0 1 0 0,-0.52929 z"
           id="path928"
           inkscape:connector-curvature="0" />
        <path
           style="color:#000000;font-style:normal;font-variant:normal;font-weight:normal;font-stretch:normal;font-size:medium;line-height:normal;font-family:sans-serif;font-variant-ligatures:normal;font-variant-position:normal;font-variant-caps:normal;font-variant-numeric:normal;font-variant-alternates:normal;font-feature-settings:normal;text-indent:0;text-align:start;text-decoration:none;text-decoration-line:none;text-decoration-style:solid;text-decoration-color:#000000;letter-spacing:normal;word-spacing:normal;text-transform:none;writing-mode:lr-tb;direction:ltr;text-orientation:mixed;dominant-baseline:auto;baseline-shift:baseline;text-anchor:start;white-space:normal;shape-padding:0;clip-rule:nonzero;display:inline;overflow:visible;visibility:visible;opacity:1;isolation:auto;mix-blend-mode:normal;color-interpolation:sRGB;color-interpolation-filters:linearRGB;solid-color:#000000;solid-opacity:1;vector-effect:none;fill:#d9edfc;fill-opacity:1;fill-rule:nonzero;stroke:none;stroke-width:0.42961898;stroke-linecap:round;stroke-linejoin:round;stroke-miterlimit:4;stroke-dasharray:none;stroke-dashoffset:0;stroke-opacity:1;color-rendering:auto;image-rendering:auto;shape-rendering:auto;text-rendering:auto;enable-background:accumulate"
           d="m 5.8203125,250.0625 a 0.26465,0.26465 0 1 0 0,0.5293 h 1.0585937 a 0.26465,0.26465 0 1 0 0,-0.5293 z"
           id="path930"
           inkscape:connector-curvature="0" />
        <path
           style="color:#000000;font-style:normal;font-variant:normal;font-weight:normal;font-stretch:normal;font-size:medium;line-height:normal;font-family:sans-serif;font-variant-ligatures:normal;font-variant-position:normal;font-variant-caps:normal;font-variant-numeric:normal;font-variant-alternates:normal;font-feature-settings:normal;text-indent:0;text-align:start;text-decoration:none;text-decoration-line:none;text-decoration-style:solid;text-decoration-color:#000000;letter-spacing:normal;word-spacing:normal;text-transform:none;writing-mode:lr-tb;direction:ltr;text-orientation:mixed;dominant-baseline:auto;baseline-shift:baseline;text-anchor:start;white-space:normal;shape-padding:0;clip-rule:nonzero;display:inline;overflow:visible;visibility:visible;opacity:1;isolation:auto;mix-blend-mode:normal;color-interpolation:sRGB;color-interpolation-filters:linearRGB;solid-color:#000000;solid-opacity:1;vector-effect:none;fill:#a4c6f8;fill-opacity:1;fill-rule:nonzero;stroke:none;stroke-width:0.42961898;stroke-linecap:round;stroke-linejoin:round;stroke-miterlimit:4;stroke-dasharray:none;stroke-dashoffset:0;stroke-opacity:1;color-rendering:auto;image-rendering:auto;shape-rendering:auto;text-rendering:auto;enable-background:accumulate"
           d="m 7.9151795,246.74651 c -0.041934,0.55856 -0.1363846,0.9336 -0.2391632,1.18877 -0.06928,0.17201 -0.143212,0.29079 -0.207222,0.36949 -0.06401,0.0787 -0.144177,0.13281 -0.144177,0.13281 -0.03808,0.0227 -0.08126,0.0355 -0.125574,0.0372 h 1.046964 c 0.04818,2.6e-4 0.09553,-0.0126 0.136943,-0.0372 0,0 0.08017,-0.0541 0.144177,-0.13281 0.06401,-0.0787 0.137938,-0.19748 0.207223,-0.36949 0.109658,-0.27225 0.206884,-0.69011 0.243912,-1.31258 0.0098,-0.16411 0.01809,-0.33392 0.01809,-0.52916 0,-0.70185 -0.06961,-1.19343 -0.16278,-1.54048 -0.05583,-0.24718 -0.168088,-0.47985 -0.306441,-0.66817 -0.06401,-0.0787 -0.144178,-0.13488 -0.144178,-0.13488 -0.04319,-0.0343 -0.09289,-0.0373 -0.136942,-0.0373 h -1.046965 l -2.7460887,1e-4 c -0.04801,-2e-4 -0.09517,0.0127 -0.136426,0.0372 0,0 -0.08068,0.0562 -0.144694,0.13488 -0.06401,0.0787 -0.13587,0.19489 -0.205155,0.3669 -0.138569,0.34404 -0.1502109,0.51935 -0.1502109,0.51935 h 1.9712887 c 1.8485404,0 2.2132047,0.42525 2.1274191,1.97537 z"
           id="path1530"
           inkscape:connector-curvature="0"
           sodipodi:nodetypes="ccccccccccscccccccccccc" />
        <path
           style="color:#000000;font-style:normal;font-variant:normal;font-weight:normal;font-stretch:normal;font-size:medium;line-height:normal;font-family:sans-serif;font-variant-ligatures:normal;font-variant-position:normal;font-variant-caps:normal;font-variant-numeric:normal;font-variant-alternates:normal;font-feature-settings:normal;text-indent:0;text-align:start;text-decoration:none;text-decoration-line:none;text-decoration-style:solid;text-decoration-color:#000000;letter-spacing:normal;word-spacing:normal;text-transform:none;writing-mode:lr-tb;direction:ltr;text-orientation:mixed;dominant-baseline:auto;baseline-shift:baseline;text-anchor:start;white-space:normal;shape-padding:0;clip-rule:nonzero;display:inline;overflow:visible;visibility:visible;opacity:1;isolation:auto;mix-blend-mode:normal;color-interpolation:sRGB;color-interpolation-filters:linearRGB;solid-color:#000000;solid-opacity:1;vector-effect:none;fill:#e0f7fa;fill-opacity:1;fill-rule:nonzero;stroke:none;stroke-width:0.42961898;stroke-linecap:round;stroke-linejoin:round;stroke-miterlimit:4;stroke-dasharray:none;stroke-dashoffset:0;stroke-opacity:1;color-rendering:auto;image-rendering:auto;shape-rendering:auto;text-rendering:auto;enable-background:accumulate"
           d="m 5.8203125,242.6543 a 0.264645,0.264645 0 1 0 0,0.52929 h 1.0585937 a 0.264645,0.264645 0 1 0 0,-0.52929 z"
           id="path965"
           inkscape:connector-curvature="0" />
      </g>
      <g
         style="display:inline;stroke-width:0.81187791"
         id="g1578">
        <path
           style="color:#000000;font-style:normal;font-variant:normal;font-weight:normal;font-stretch:normal;font-size:medium;line-height:normal;font-family:sans-serif;font-variant-ligatures:normal;font-variant-position:normal;font-variant-caps:normal;font-variant-numeric:normal;font-variant-alternates:normal;font-feature-settings:normal;text-indent:0;text-align:start;text-decoration:none;text-decoration-line:none;text-decoration-style:solid;text-decoration-color:#000000;letter-spacing:normal;word-spacing:normal;text-transform:none;writing-mode:lr-tb;direction:ltr;text-orientation:mixed;dominant-baseline:auto;baseline-shift:baseline;text-anchor:start;white-space:normal;shape-padding:0;clip-rule:nonzero;display:inline;overflow:visible;visibility:visible;opacity:1;isolation:auto;mix-blend-mode:normal;color-interpolation:sRGB;color-interpolation-filters:linearRGB;solid-color:#000000;solid-opacity:1;vector-effect:none;fill:#43a047;fill-opacity:1;fill-rule:nonzero;stroke:none;stroke-width:0.42961872;stroke-linecap:round;stroke-linejoin:round;stroke-miterlimit:4;stroke-dasharray:none;stroke-dashoffset:0;stroke-opacity:1;color-rendering:auto;image-rendering:auto;shape-rendering:auto;text-rendering:auto;enable-background:accumulate"
           d="m 5.5839844,244.74805 a 0.26460978,0.26460978 0 0 0 -0.021484,0.004 0.26460978,0.26460978 0 0 0 -0.00391,0 c -0.1877675,9.1e-4 -0.3613282,0.0234 -0.3613282,0.0234 a 0.26460978,0.26460978 0 0 0 -0.2089844,0.20899 c 0,0 -0.03674,0.18546 -0.027344,0.41406 0.0094,0.2286 0.056847,0.5295 0.2871094,0.75976 0.2231155,0.22312 0.5127842,0.27512 0.7363281,0.28711 0.2235439,0.012 0.3990477,-0.0204 0.4257812,-0.0254 a 0.26460978,0.26460978 0 0 0 0.1992188,-0.3457 c -0.00503,-0.0341 -0.038418,-0.24318 0.00781,-0.44336 a 0.26460978,0.26460978 0 0 0 0,-0.11914 C 6.5811323,245.35572 6.5154119,245.17953 6.3710876,245.03521 6.1408342,244.80495 5.83996,244.75749 5.6113219,244.7481 a 0.26460978,0.26460978 0 0 0 -0.027344,0 z"
           id="path1554"
           inkscape:connector-curvature="0" />
        <path
           style="color:#000000;font-style:normal;font-variant:normal;font-weight:normal;font-stretch:normal;font-size:medium;line-height:normal;font-family:sans-serif;font-variant-ligatures:normal;font-variant-position:normal;font-variant-caps:normal;font-variant-numeric:normal;font-variant-alternates:normal;font-feature-settings:normal;text-indent:0;text-align:start;text-decoration:none;text-decoration-line:none;text-decoration-style:solid;text-decoration-color:#000000;letter-spacing:normal;word-spacing:normal;text-transform:none;writing-mode:lr-tb;direction:ltr;text-orientation:mixed;dominant-baseline:auto;baseline-shift:baseline;text-anchor:start;white-space:normal;shape-padding:0;clip-rule:nonzero;display:inline;overflow:visible;visibility:visible;opacity:1;isolation:auto;mix-blend-mode:normal;color-interpolation:sRGB;color-interpolation-filters:linearRGB;solid-color:#000000;solid-opacity:1;vector-effect:none;fill:#00e676;fill-opacity:1;fill-rule:nonzero;stroke:none;stroke-width:0.42961898;stroke-linecap:round;stroke-linejoin:round;stroke-miterlimit:4;stroke-dasharray:none;stroke-dashoffset:0;stroke-opacity:1;color-rendering:auto;image-rendering:auto;shape-rendering:auto;text-rendering:auto;enable-background:accumulate"
           d="m 6.3457031,245.88867 a 0.26460996,0.26460996 0 0 0 -0.2597656,0.26953 v 0.99414 a 0.26464845,0.26464845 0 1 0 0.5292969,0 v -0.99414 a 0.26460996,0.26460996 0 0 0 -0.2695313,-0.26953 z"
           id="path938"
           inkscape:connector-curvature="0" />
        <path
           style="color:#000000;font-style:normal;font-variant:normal;font-weight:normal;font-stretch:normal;font-size:medium;line-height:normal;font-family:sans-serif;font-variant-ligatures:normal;font-variant-position:normal;font-variant-caps:normal;font-variant-numeric:normal;font-variant-alternates:normal;font-feature-settings:normal;text-indent:0;text-align:start;text-decoration:none;text-decoration-line:none;text-decoration-style:solid;text-decoration-color:#000000;letter-spacing:normal;word-spacing:normal;text-transform:none;writing-mode:lr-tb;direction:ltr;text-orientation:mixed;dominant-baseline:auto;baseline-shift:baseline;text-anchor:start;white-space:normal;shape-padding:0;clip-rule:nonzero;display:inline;overflow:visible;visibility:visible;opacity:1;isolation:auto;mix-blend-mode:normal;color-interpolation:sRGB;color-interpolation-filters:linearRGB;solid-color:#000000;solid-opacity:1;vector-effect:none;fill:#8d6e63;fill-opacity:1;fill-rule:nonzero;stroke:none;stroke-width:0.42961898;stroke-linecap:round;stroke-linejoin:round;stroke-miterlimit:4;stroke-dasharray:none;stroke-dashoffset:0;stroke-opacity:1;color-rendering:auto;image-rendering:auto;shape-rendering:auto;text-rendering:auto;enable-background:accumulate"
           d="m 6.0585938,246.88867 a 0.26500292,0.26500292 0 0 0 0.027344,0.5293 h 0.5292969 a 0.26465,0.26465 0 1 0 0,-0.5293 H 6.0859375 a 0.26460996,0.26460996 0 0 0 -0.027344,0 z"
           id="path936"
           inkscape:connector-curvature="0" />
        <path
           style="color:#000000;font-style:normal;font-variant:normal;font-weight:normal;font-stretch:normal;font-size:medium;line-height:normal;font-family:sans-serif;font-variant-ligatures:normal;font-variant-position:normal;font-variant-caps:normal;font-variant-numeric:normal;font-variant-alternates:normal;font-feature-settings:normal;text-indent:0;text-align:start;text-decoration:none;text-decoration-line:none;text-decoration-style:solid;text-decoration-color:#000000;letter-spacing:normal;word-spacing:normal;text-transform:none;writing-mode:lr-tb;direction:ltr;text-orientation:mixed;dominant-baseline:auto;baseline-shift:baseline;text-anchor:start;white-space:normal;shape-padding:0;clip-rule:nonzero;display:inline;overflow:visible;visibility:visible;opacity:1;isolation:auto;mix-blend-mode:normal;color-interpolation:sRGB;color-interpolation-filters:linearRGB;solid-color:#000000;solid-opacity:1;vector-effect:none;fill:#34863f;fill-opacity:1;fill-rule:nonzero;stroke:none;stroke-width:0.42961872;stroke-linecap:round;stroke-linejoin:round;stroke-miterlimit:4;stroke-dasharray:none;stroke-dashoffset:0;stroke-opacity:1;color-rendering:auto;image-rendering:auto;shape-rendering:auto;text-rendering:auto;enable-background:accumulate"
           d="m 6.609414,246.074 c -0.005,-0.0341 -0.038469,-0.2432 0.00775,-0.44338 0.00909,-0.0393 0.00909,-0.0801 0,-0.11937 -0.03605,-0.15605 -0.101655,-0.33214 -0.2459799,-0.47646 -0.2302529,-0.23026 -0.5310056,-0.27793 -0.7596437,-0.28732 -0.00912,-4.7e-4 -0.018265,-4.7e-4 -0.027388,0 l 2.8e-6,4.2e-4 c -0.00729,10e-4 -0.014528,0.002 -0.021704,0.004 -0.00121,-1e-5 -0.00241,-1e-5 -0.00362,0 -0.1201986,5.3e-4 -0.2154005,0.008 -0.2821535,0.015 0.1888016,0.0292 0.3961193,0.099 0.5653402,0.2682 0.1443249,0.14432 0.2099299,0.3204 0.2459799,0.47646 0.00909,0.0393 0.00909,0.0801 0,0.11937 -0.04622,0.20018 -0.01275,0.40928 -0.00775,0.44338 z"
           id="path1567"
           inkscape:connector-curvature="0"
           sodipodi:nodetypes="ccccccccccccccc" />
        <path
           style="color:#000000;font-style:normal;font-variant:normal;font-weight:normal;font-stretch:normal;font-size:medium;line-height:normal;font-family:sans-serif;font-variant-ligatures:normal;font-variant-position:normal;font-variant-caps:normal;font-variant-numeric:normal;font-variant-alternates:normal;font-feature-settings:normal;text-indent:0;text-align:start;text-decoration:none;text-decoration-line:none;text-decoration-style:solid;text-decoration-color:#000000;letter-spacing:normal;word-spacing:normal;text-transform:none;writing-mode:lr-tb;direction:ltr;text-orientation:mixed;dominant-baseline:auto;baseline-shift:baseline;text-anchor:start;white-space:normal;shape-padding:0;clip-rule:nonzero;display:inline;overflow:visible;visibility:visible;opacity:1;isolation:auto;mix-blend-mode:normal;color-interpolation:sRGB;color-interpolation-filters:linearRGB;solid-color:#000000;solid-opacity:1;vector-effect:none;fill:#00e676;fill-opacity:1;fill-rule:nonzero;stroke:none;stroke-width:0.42961898;stroke-linecap:round;stroke-linejoin:round;stroke-miterlimit:4;stroke-dasharray:none;stroke-dashoffset:0;stroke-opacity:1;color-rendering:auto;image-rendering:auto;shape-rendering:auto;text-rendering:auto;enable-background:accumulate"
           d="m 7.109375,244.74805 c -0.2286162,0.009 -0.5294967,0.0568 -0.7597656,0.28711 -0.2302701,0.23026 -0.2777087,0.5331 -0.2871094,0.76172 -0.0094,0.22861 0.027344,0.4121 0.027344,0.4121 a 0.26460996,0.26460996 0 0 0 0.2089843,0.20899 c 0,0 0.1854463,0.0368 0.4140625,0.0273 0.2286162,-0.009 0.5294967,-0.0568 0.7597656,-0.28711 0.2302701,-0.23027 0.2777087,-0.53115 0.2871094,-0.75976 0.0094,-0.22862 -0.027344,-0.41406 -0.027344,-0.41406 a 0.26460996,0.26460996 0 0 0 -0.2089844,-0.20899 c 0,0 -0.1854463,-0.0367 -0.4140624,-0.0273 z"
           id="path1548"
           inkscape:connector-curvature="0" />
        <path
           style="color:#000000;font-style:normal;font-variant:normal;font-weight:normal;font-stretch:normal;font-size:medium;line-height:normal;font-family:sans-serif;font-variant-ligatures:normal;font-variant-position:normal;font-variant-caps:normal;font-variant-numeric:normal;font-variant-alternates:normal;font-feature-settings:normal;text-indent:0;text-align:start;text-decoration:none;text-decoration-line:none;text-decoration-style:solid;text-decoration-color:#000000;letter-spacing:normal;word-spacing:normal;text-transform:none;writing-mode:lr-tb;direction:ltr;text-orientation:mixed;dominant-baseline:auto;baseline-shift:baseline;text-anchor:start;white-space:normal;shape-padding:0;clip-rule:nonzero;display:inline;overflow:visible;visibility:visible;opacity:1;isolation:auto;mix-blend-mode:normal;color-interpolation:sRGB;color-interpolation-filters:linearRGB;solid-color:#000000;solid-opacity:1;vector-effect:none;fill:#08a975;fill-opacity:1;fill-rule:nonzero;stroke:none;stroke-width:0.42961898;stroke-linecap:round;stroke-linejoin:round;stroke-miterlimit:4;stroke-dasharray:none;stroke-dashoffset:0;stroke-opacity:1;color-rendering:auto;image-rendering:auto;shape-rendering:auto;text-rendering:auto;enable-background:accumulate"
           d="m 7.1091596,244.74779 c -0.2286172,0.009 -0.5293746,0.057 -0.7596436,0.28733 -0.099164,0.0991 -0.159657,0.21223 -0.2025716,0.32659 0.1505439,-0.0567 0.3029749,-0.0796 0.4330486,-0.0847 0.2286158,-0.009 0.4144449,0.0274 0.4144449,0.0274 a 0.26460995,0.26460995 0 0 1 0.2087726,0.20929 c 0,0 0.036789,0.18531 0.027389,0.41393 -0.00534,0.12989 -0.02726,0.2827 -0.083716,0.43305 0.1139015,-0.043 0.2264328,-0.10343 0.3255616,-0.20257 0.2302698,-0.23027 0.2779207,-0.53104 0.2873208,-0.75965 0.0094,-0.22862 -0.027389,-0.41393 -0.027389,-0.41393 a 0.26460995,0.26460995 0 0 0 -0.2087727,-0.20929 c 0,0 -0.185829,-0.0368 -0.4144449,-0.0274 z"
           id="path1562"
           inkscape:connector-curvature="0" />
      </g>
    </g>
  </g>
</svg>
