<?xml version="1.0" encoding="UTF-8" standalone="no"?>
<!-- Created with Inkscape (http://www.inkscape.org/) -->

<svg
   xmlns:dc="http://purl.org/dc/elements/1.1/"
   xmlns:cc="http://creativecommons.org/ns#"
   xmlns:rdf="http://www.w3.org/1999/02/22-rdf-syntax-ns#"
   xmlns:svg="http://www.w3.org/2000/svg"
   xmlns="http://www.w3.org/2000/svg"
   xmlns:sodipodi="http://sodipodi.sourceforge.net/DTD/sodipodi-0.dtd"
   xmlns:inkscape="http://www.inkscape.org/namespaces/inkscape"
   width="48pt"
   height="48pt"
   viewBox="0 0 16.933334 16.933333"
   version="1.1"
   id="svg979"
   inkscape:version="0.92.4 (5da689c313, 2019-01-14)"
   sodipodi:docname="5 - Farm Axe.svg"
   inkscape:export-filename="E:\TR Design Studio Creative\Project Design\TR Creative Design\Icon Design\Project Hiring\Icon Icons\Project - 001\001 - Agriculture And Farming\Flat\Export\5 - Farm Axe.png"
   inkscape:export-xdpi="768"
   inkscape:export-ydpi="768">
  <defs
     id="defs973" />
  <sodipodi:namedview
     id="base"
     pagecolor="#ffffff"
     bordercolor="#666666"
     borderopacity="1.0"
     inkscape:pageopacity="0.0"
     inkscape:pageshadow="2"
     inkscape:zoom="6.0435533"
     inkscape:cx="32"
     inkscape:cy="32"
     inkscape:document-units="pt"
     inkscape:current-layer="layer1"
     showgrid="false"
     units="pt"
     inkscape:window-width="1366"
     inkscape:window-height="716"
     inkscape:window-x="-8"
     inkscape:window-y="-8"
     inkscape:window-maximized="1"
     inkscape:snap-bbox="true"
     inkscape:bbox-nodes="true"
     inkscape:snap-nodes="false"
     showguides="false">
    <inkscape:grid
       type="xygrid"
       id="grid1526" />
    <sodipodi:guide
       position="0.97013909,15.963209"
       orientation="56.666615,0"
       id="guide1528"
       inkscape:locked="false" />
    <sodipodi:guide
       position="0.97013909,0.97016731"
       orientation="0,56.666667"
       id="guide1530"
       inkscape:locked="false" />
    <sodipodi:guide
       position="15.963195,0.97016731"
       orientation="-56.666615,0"
       id="guide1532"
       inkscape:locked="false" />
    <sodipodi:guide
       position="15.963195,15.963209"
       orientation="0,-56.666667"
       id="guide1534"
       inkscape:locked="false" />
  </sodipodi:namedview>
  <metadata
     id="metadata976">
    <rdf:RDF>
      <cc:Work
         rdf:about="">
        <dc:format>image/svg+xml</dc:format>
        <dc:type
           rdf:resource="http://purl.org/dc/dcmitype/StillImage" />
        <dc:title></dc:title>
      </cc:Work>
    </rdf:RDF>
  </metadata>
  <g
     inkscape:label="Layer 1"
     inkscape:groupmode="layer"
     id="layer1"
     transform="translate(0,-280.06668)">
    <g
       transform="matrix(1.2286841,0,0,1.2286841,-53.431919,-14.486446)"
       style="display:inline;stroke-width:0.81387883"
       id="g2266">
      <g
         transform="translate(0,5.2916667)"
         id="g2070"
         style="stroke-width:0.81387883">
        <g
           id="g2049"
           style="stroke-width:0.81387883">
          <path
             sodipodi:nodetypes="cccccccccccccccccc"
             inkscape:connector-curvature="0"
             id="path1924"
             d="m 52.169922,235.22852 c -0.06904,0.001 -0.134931,0.0291 -0.183594,0.0781 -1.080332,1.07917 -2.160483,2.15853 -3.240234,3.23828 -0.103861,0.10343 -0.103861,0.27157 0,0.375 l 0.935547,0.93555 c 0.103426,0.10386 0.271574,0.10386 0.375,0 l 0.521484,-0.52344 c 0.02925,-0.029 0.05132,-0.0645 0.06445,-0.10351 l 0.144531,-0.43555 0.4375,-0.14453 c 0.03906,-0.0131 0.0745,-0.0352 0.103516,-0.0645 l 1.21875,-1.2207 c 0.103426,0.10386 0.271574,0.10386 0.375,0 l 0.560547,-0.56055 c 0.103861,-0.10343 0.103861,-0.27157 0,-0.375 l -1.123047,-1.12109 c -0.0501,-0.0504 -0.118376,-0.0786 -0.189453,-0.0781 z"
             style="color:#000000;font-style:normal;font-variant:normal;font-weight:normal;font-stretch:normal;font-size:medium;line-height:normal;font-family:sans-serif;font-variant-ligatures:normal;font-variant-position:normal;font-variant-caps:normal;font-variant-numeric:normal;font-variant-alternates:normal;font-feature-settings:normal;text-indent:0;text-align:start;text-decoration:none;text-decoration-line:none;text-decoration-style:solid;text-decoration-color:#000000;letter-spacing:normal;word-spacing:normal;text-transform:none;writing-mode:lr-tb;direction:ltr;text-orientation:mixed;dominant-baseline:auto;baseline-shift:baseline;text-anchor:start;white-space:normal;shape-padding:0;clip-rule:nonzero;display:inline;overflow:visible;visibility:visible;opacity:1;isolation:auto;mix-blend-mode:normal;color-interpolation:sRGB;color-interpolation-filters:linearRGB;solid-color:#000000;solid-opacity:1;vector-effect:none;fill:#ffb74d;fill-opacity:1;fill-rule:nonzero;stroke:none;stroke-width:0.43067783;stroke-linecap:round;stroke-linejoin:round;stroke-miterlimit:4;stroke-dasharray:none;stroke-dashoffset:0;stroke-opacity:1;color-rendering:auto;image-rendering:auto;shape-rendering:auto;text-rendering:auto;enable-background:accumulate" />
          <path
             sodipodi:nodetypes="ccccccccccccccccccccccccccc"
             inkscape:connector-curvature="0"
             id="path1944"
             transform="matrix(0.26458333,0,0,0.26458333,0,284.3)"
             d="m 200.18945,-182.88086 c 0.34373,0.39724 0.32155,0.99272 -0.0508,1.36328 l -2.11914,2.11914 c -0.39097,0.39298 -0.9176,0.37345 -1.30857,-0.0195 l -4.71487,4.63281 c -0.10944,0.11067 -0.24319,0.19426 -0.39062,0.24414 l -1.6543,0.54493 -0.54687,1.64648 c -0.049,0.14794 -0.13197,0.28238 -0.24219,0.39258 l -0.22852,0.22851 -2.95055,-2.94996 -1.74671,1.74489 c -0.39298,0.39097 -0.39298,1.027 0,1.41797 l 1.59179,1.58984 1.94532,1.94726 c 0.50822,0.44577 1.05656,0.3615 1.418,6e-5 l 1.74218,-1.75 0.22852,-0.22851 c 0.11022,-0.1102 0.19315,-0.24464 0.24219,-0.39258 l 0.54687,-1.64648 1.6543,-0.54493 c 0.14743,-0.0499 0.28118,-0.13347 0.39062,-0.24414 l 4.60547,-4.61328 c 0.39097,0.39298 1.027,0.39298 1.41797,0 l 2.11914,-2.11914 c 0.39298,-0.39097 0.39298,-1.027 0,-1.41797 z"
             style="color:#000000;font-style:normal;font-variant:normal;font-weight:normal;font-stretch:normal;font-size:medium;line-height:normal;font-family:sans-serif;font-variant-ligatures:normal;font-variant-position:normal;font-variant-caps:normal;font-variant-numeric:normal;font-variant-alternates:normal;font-feature-settings:normal;text-indent:0;text-align:start;text-decoration:none;text-decoration-line:none;text-decoration-style:solid;text-decoration-color:#000000;letter-spacing:normal;word-spacing:normal;text-transform:none;writing-mode:lr-tb;direction:ltr;text-orientation:mixed;dominant-baseline:auto;baseline-shift:baseline;text-anchor:start;white-space:normal;shape-padding:0;clip-rule:nonzero;display:inline;overflow:visible;visibility:visible;opacity:1;isolation:auto;mix-blend-mode:normal;color-interpolation:sRGB;color-interpolation-filters:linearRGB;solid-color:#000000;solid-opacity:1;vector-effect:none;fill:#f8a144;fill-opacity:1;fill-rule:nonzero;stroke:none;stroke-width:1.62775862;stroke-linecap:round;stroke-linejoin:round;stroke-miterlimit:4;stroke-dasharray:none;stroke-dashoffset:0;stroke-opacity:1;color-rendering:auto;image-rendering:auto;shape-rendering:auto;text-rendering:auto;enable-background:accumulate" />
          <path
             inkscape:connector-curvature="0"
             id="path1910"
             d="m 47.367188,240.00391 a 0.26460996,0.26460996 0 0 0 -0.15625,0.0762 l -0.560547,0.5625 a 0.26460996,0.26460996 0 0 0 0,0.37304 l 0.935547,0.93555 a 0.26460996,0.26460996 0 0 0 0.373046,0 l 0.5625,-0.56055 a 0.26460996,0.26460996 0 0 0 0,-0.375 l -0.935546,-0.93554 a 0.26460996,0.26460996 0 0 0 -0.21875,-0.0762 z"
             style="color:#000000;font-style:normal;font-variant:normal;font-weight:normal;font-stretch:normal;font-size:medium;line-height:normal;font-family:sans-serif;font-variant-ligatures:normal;font-variant-position:normal;font-variant-caps:normal;font-variant-numeric:normal;font-variant-alternates:normal;font-feature-settings:normal;text-indent:0;text-align:start;text-decoration:none;text-decoration-line:none;text-decoration-style:solid;text-decoration-color:#000000;letter-spacing:normal;word-spacing:normal;text-transform:none;writing-mode:lr-tb;direction:ltr;text-orientation:mixed;dominant-baseline:auto;baseline-shift:baseline;text-anchor:start;white-space:normal;shape-padding:0;clip-rule:nonzero;display:inline;overflow:visible;visibility:visible;opacity:1;isolation:auto;mix-blend-mode:normal;color-interpolation:sRGB;color-interpolation-filters:linearRGB;solid-color:#000000;solid-opacity:1;vector-effect:none;fill:#ffb74d;fill-opacity:1;fill-rule:nonzero;stroke:none;stroke-width:0.43067783;stroke-linecap:round;stroke-linejoin:round;stroke-miterlimit:4;stroke-dasharray:none;stroke-dashoffset:0;stroke-opacity:1;color-rendering:auto;image-rendering:auto;shape-rendering:auto;text-rendering:auto;enable-background:accumulate" />
          <path
             inkscape:connector-curvature="0"
             id="path1949"
             d="m 47.992445,240.48676 a 0.26460995,0.26460995 0 0 1 0,0.37465 l -0.562755,0.56069 a 0.26460995,0.26460995 0 0 1 -0.373105,0 l 0.529166,0.52917 a 0.26460995,0.26460995 0 0 0 0.373105,0 l 0.562756,-0.56069 a 0.26460995,0.26460995 0 0 0 0,-0.37465 z"
             style="color:#000000;font-style:normal;font-variant:normal;font-weight:normal;font-stretch:normal;font-size:medium;line-height:normal;font-family:sans-serif;font-variant-ligatures:normal;font-variant-position:normal;font-variant-caps:normal;font-variant-numeric:normal;font-variant-alternates:normal;font-feature-settings:normal;text-indent:0;text-align:start;text-decoration:none;text-decoration-line:none;text-decoration-style:solid;text-decoration-color:#000000;letter-spacing:normal;word-spacing:normal;text-transform:none;writing-mode:lr-tb;direction:ltr;text-orientation:mixed;dominant-baseline:auto;baseline-shift:baseline;text-anchor:start;white-space:normal;shape-padding:0;clip-rule:nonzero;display:inline;overflow:visible;visibility:visible;opacity:1;isolation:auto;mix-blend-mode:normal;color-interpolation:sRGB;color-interpolation-filters:linearRGB;solid-color:#000000;solid-opacity:1;vector-effect:none;fill:#f8a144;fill-opacity:1;fill-rule:nonzero;stroke:none;stroke-width:0.43067783;stroke-linecap:round;stroke-linejoin:round;stroke-miterlimit:4;stroke-dasharray:none;stroke-dashoffset:0;stroke-opacity:1;color-rendering:auto;image-rendering:auto;shape-rendering:auto;text-rendering:auto;enable-background:accumulate" />
        </g>
        <g
           id="g2043"
           style="stroke-width:0.81387883">
          <g
             id="g2035"
             style="stroke-width:0.81387883">
            <path
               style="color:#000000;font-style:normal;font-variant:normal;font-weight:normal;font-stretch:normal;font-size:medium;line-height:normal;font-family:sans-serif;font-variant-ligatures:normal;font-variant-position:normal;font-variant-caps:normal;font-variant-numeric:normal;font-variant-alternates:normal;font-feature-settings:normal;text-indent:0;text-align:start;text-decoration:none;text-decoration-line:none;text-decoration-style:solid;text-decoration-color:#000000;letter-spacing:normal;word-spacing:normal;text-transform:none;writing-mode:lr-tb;direction:ltr;text-orientation:mixed;dominant-baseline:auto;baseline-shift:baseline;text-anchor:start;white-space:normal;shape-padding:0;clip-rule:nonzero;display:inline;overflow:visible;visibility:visible;opacity:1;isolation:auto;mix-blend-mode:normal;color-interpolation:sRGB;color-interpolation-filters:linearRGB;solid-color:#000000;solid-opacity:1;vector-effect:none;fill:#ed5050;fill-opacity:1;fill-rule:nonzero;stroke:none;stroke-width:0.43067783;stroke-linecap:round;stroke-linejoin:round;stroke-miterlimit:4;stroke-dasharray:none;stroke-dashoffset:0;stroke-opacity:1;color-rendering:auto;image-rendering:auto;shape-rendering:auto;text-rendering:auto;enable-background:accumulate"
               d="m 48.970703,236.9082 a 0.26460996,0.26460996 0 0 0 -0.02734,0.004 c -0.809813,0.16587 -1.389005,0.77698 -1.773437,1.32227 -0.384433,0.54528 -0.583984,1.05468 -0.583984,1.05468 a 0.26460996,0.26460996 0 0 0 0.0039,0.20117 c 0.319445,0.73815 0.916486,1.20647 1.425781,1.66602 0.509295,0.45955 0.927305,0.89376 1.042969,1.55859 a 0.26460996,0.26460996 0 0 0 0.261718,0.21875 h 1.322266 a 0.26460996,0.26460996 0 0 0 0.189453,-0.0781 c 0,0 0.238721,-0.24271 0.453125,-0.56445 0.107202,-0.16088 0.211821,-0.343 0.277344,-0.54102 0.06552,-0.19802 0.09571,-0.42096 0.01172,-0.64062 a 0.26460996,0.26460996 0 0 0 -0.06055,-0.0938 l -1.308594,-1.30859 c -0.27951,-0.27951 -0.581198,-0.55428 -0.814453,-0.81836 -0.233255,-0.26407 -0.388579,-0.51492 -0.421875,-0.7207 -0.06088,-0.37631 0.242188,-0.83985 0.242188,-0.83985 a 0.26460996,0.26460996 0 0 0 -0.240235,-0.41992 z"
               id="path1895"
               inkscape:connector-curvature="0" />
            <path
               style="color:#000000;font-style:normal;font-variant:normal;font-weight:normal;font-stretch:normal;font-size:medium;line-height:normal;font-family:sans-serif;font-variant-ligatures:normal;font-variant-position:normal;font-variant-caps:normal;font-variant-numeric:normal;font-variant-alternates:normal;font-feature-settings:normal;text-indent:0;text-align:start;text-decoration:none;text-decoration-line:none;text-decoration-style:solid;text-decoration-color:#000000;letter-spacing:normal;word-spacing:normal;text-transform:none;writing-mode:lr-tb;direction:ltr;text-orientation:mixed;dominant-baseline:auto;baseline-shift:baseline;text-anchor:start;white-space:normal;shape-padding:0;clip-rule:nonzero;display:inline;overflow:visible;visibility:visible;opacity:1;isolation:auto;mix-blend-mode:normal;color-interpolation:sRGB;color-interpolation-filters:linearRGB;solid-color:#000000;solid-opacity:1;vector-effect:none;fill:#be2c2c;fill-opacity:1;fill-rule:nonzero;stroke:none;stroke-width:0.43067783;stroke-linecap:round;stroke-linejoin:round;stroke-miterlimit:4;stroke-dasharray:none;stroke-dashoffset:0;stroke-opacity:1;color-rendering:auto;image-rendering:auto;shape-rendering:auto;text-rendering:auto;enable-background:accumulate"
               d="m 48.943431,236.91221 c -0.646362,0.13653 -1.116532,0.59433 -1.033011,1.25574 0.0333,0.20578 0.188424,0.45682 0.42168,0.72089 0.233254,0.26408 0.534911,0.53853 0.814419,0.81803 l 1.308447,1.30897 c 0.02675,0.0265 0.04754,0.0584 0.06098,0.0935 0.08399,0.21966 0.05364,0.44277 -0.01188,0.64079 -0.06552,0.19802 -0.170299,0.38017 -0.277503,0.54105 -0.214403,0.32174 -0.453202,0.56431 -0.453202,0.56431 -0.05003,0.0503 -0.118179,0.0784 -0.189135,0.078 h 1.058333 c 0.07096,5.3e-4 0.139102,-0.0277 0.189135,-0.078 0,0 0.2388,-0.24257 0.453202,-0.56431 0.107204,-0.16088 0.211979,-0.34303 0.277503,-0.54105 0.06552,-0.19802 0.09588,-0.42113 0.01188,-0.64079 -0.01344,-0.0352 -0.03423,-0.067 -0.06098,-0.0935 l -1.308446,-1.30897 c -0.279509,-0.2795 -0.581165,-0.55395 -0.81442,-0.81803 -0.233256,-0.26407 -0.388384,-0.51511 -0.421679,-0.72089 -0.06088,-0.37631 0.241845,-0.83974 0.241845,-0.83974 0.127868,-0.17423 0.0042,-0.41998 -0.211873,-0.42116 z"
               id="path1929"
               inkscape:connector-curvature="0"
               sodipodi:nodetypes="cccccccccccccccccccccc" />
          </g>
          <g
             id="g2031"
             style="stroke-width:0.81387883">
            <path
               style="color:#000000;font-style:normal;font-variant:normal;font-weight:normal;font-stretch:normal;font-size:medium;line-height:normal;font-family:sans-serif;font-variant-ligatures:normal;font-variant-position:normal;font-variant-caps:normal;font-variant-numeric:normal;font-variant-alternates:normal;font-feature-settings:normal;text-indent:0;text-align:start;text-decoration:none;text-decoration-line:none;text-decoration-style:solid;text-decoration-color:#000000;letter-spacing:normal;word-spacing:normal;text-transform:none;writing-mode:lr-tb;direction:ltr;text-orientation:mixed;dominant-baseline:auto;baseline-shift:baseline;text-anchor:start;white-space:normal;shape-padding:0;clip-rule:nonzero;display:inline;overflow:visible;visibility:visible;opacity:1;isolation:auto;mix-blend-mode:normal;color-interpolation:sRGB;color-interpolation-filters:linearRGB;solid-color:#000000;solid-opacity:1;vector-effect:none;fill:#eceff1;fill-opacity:1;fill-rule:nonzero;stroke:none;stroke-width:1.62775862;stroke-linecap:round;stroke-linejoin:round;stroke-miterlimit:4;stroke-dasharray:none;stroke-dashoffset:0;stroke-opacity:1;color-rendering:auto;image-rendering:auto;shape-rendering:auto;text-rendering:auto;enable-background:accumulate"
               d="m 190.58398,-167.70703 c -0.42104,1.91314 -1.25167,3.8647 -2.57439,5.05854 -1.65947,1.51297 -2.72886,1.53352 -4.51172,1.60546 0.94806,1.11124 1.651,2.32538 1.91992,3.87109 0.0847,0.47985 0.50296,0.82879 0.99023,0.82618 h 4.9961 c 0.26886,0.002 0.52722,-0.10426 0.71679,-0.29492 0,0 0.90255,-0.91679 1.71289,-2.13282 0.40518,-0.60805 0.80119,-1.2965 1.04883,-2.04492 0.24764,-0.74842 0.36041,-1.59166 0.043,-2.42187 -0.0502,-0.13272 -0.12812,-0.25323 -0.22851,-0.35352 z"
               transform="matrix(0.26458333,0,0,0.26458333,0,284.3)"
               id="path1901"
               inkscape:connector-curvature="0"
               sodipodi:nodetypes="ccccccccsccc" />
            <path
               style="color:#000000;font-style:normal;font-variant:normal;font-weight:normal;font-stretch:normal;font-size:medium;line-height:normal;font-family:sans-serif;font-variant-ligatures:normal;font-variant-position:normal;font-variant-caps:normal;font-variant-numeric:normal;font-variant-alternates:normal;font-feature-settings:normal;text-indent:0;text-align:start;text-decoration:none;text-decoration-line:none;text-decoration-style:solid;text-decoration-color:#000000;letter-spacing:normal;word-spacing:normal;text-transform:none;writing-mode:lr-tb;direction:ltr;text-orientation:mixed;dominant-baseline:auto;baseline-shift:baseline;text-anchor:start;white-space:normal;shape-padding:0;clip-rule:nonzero;display:inline;overflow:visible;visibility:visible;opacity:1;isolation:auto;mix-blend-mode:normal;color-interpolation:sRGB;color-interpolation-filters:linearRGB;solid-color:#000000;solid-opacity:1;vector-effect:none;fill:#cdd3d7;fill-opacity:1;fill-rule:nonzero;stroke:none;stroke-width:0.43067783;stroke-linecap:round;stroke-linejoin:round;stroke-miterlimit:4;stroke-dasharray:none;stroke-dashoffset:0;stroke-opacity:1;color-rendering:auto;image-rendering:auto;shape-rendering:auto;text-rendering:auto;enable-background:accumulate"
               d="m 50.425344,239.92752 c -0.05928,0.26936 -0.15045,0.54054 -0.274399,0.78393 l 0.304374,0.30437 c 0.02656,0.0265 0.04718,0.0584 0.06046,0.0935 0.08398,0.21966 0.05415,0.44276 -0.01138,0.64078 -0.06552,0.19802 -0.170299,0.38017 -0.277503,0.54105 -0.214403,0.32175 -0.453203,0.56431 -0.453203,0.56431 -0.05016,0.0504 -0.118512,0.0786 -0.18965,0.078 h 1.058333 c 0.07114,5.3e-4 0.139494,-0.0276 0.189651,-0.078 0,0 0.2388,-0.24256 0.453202,-0.56431 0.107204,-0.16088 0.211981,-0.34303 0.277503,-0.54105 0.06552,-0.19802 0.09535,-0.42112 0.01138,-0.64078 -0.01328,-0.0351 -0.0339,-0.067 -0.06046,-0.0935 z"
               id="path1934"
               inkscape:connector-curvature="0" />
          </g>
        </g>
        <g
           id="g2053"
           style="stroke-width:0.81387883">
          <path
             sodipodi:nodetypes="cccccccccc"
             inkscape:connector-curvature="0"
             id="path1918"
             transform="matrix(0.26458333,0,0,0.26458333,0,284.3)"
             d="m 197.17773,-185.4668 c -0.26073,0.004 -0.50952,0.10998 -0.69335,0.29492 l -4.22657,4.22461 c 1.82512,1.84384 3.22403,3.25528 4.93199,4.96323 l 1.41176,-1.4144 c 0.39097,0.39298 1.027,0.39298 1.41797,0 l 2.11914,-2.11914 c 0.39298,-0.39097 0.39298,-1.027 0,-1.41797 l -4.24414,-4.23633 c -0.18958,-0.19066 -0.44794,-0.29696 -0.7168,-0.29492 z"
             style="color:#000000;font-style:normal;font-variant:normal;font-weight:normal;font-stretch:normal;font-size:medium;line-height:normal;font-family:sans-serif;font-variant-ligatures:normal;font-variant-position:normal;font-variant-caps:normal;font-variant-numeric:normal;font-variant-alternates:normal;font-feature-settings:normal;text-indent:0;text-align:start;text-decoration:none;text-decoration-line:none;text-decoration-style:solid;text-decoration-color:#000000;letter-spacing:normal;word-spacing:normal;text-transform:none;writing-mode:lr-tb;direction:ltr;text-orientation:mixed;dominant-baseline:auto;baseline-shift:baseline;text-anchor:start;white-space:normal;shape-padding:0;clip-rule:nonzero;display:inline;overflow:visible;visibility:visible;opacity:1;isolation:auto;mix-blend-mode:normal;color-interpolation:sRGB;color-interpolation-filters:linearRGB;solid-color:#000000;solid-opacity:1;vector-effect:none;fill:#a1887f;fill-opacity:1;fill-rule:nonzero;stroke:none;stroke-width:1.62775862;stroke-linecap:round;stroke-linejoin:round;stroke-miterlimit:4;stroke-dasharray:none;stroke-dashoffset:0;stroke-opacity:1;color-rendering:auto;image-rendering:auto;shape-rendering:auto;text-rendering:auto;enable-background:accumulate" />
          <path
             sodipodi:nodetypes="ccccccccccccccc"
             inkscape:connector-curvature="0"
             id="path1939"
             transform="matrix(0.26458333,0,0,0.26458333,0,284.3)"
             d="m 197.17773,-185.4668 c -0.26071,0.004 -0.50953,0.11011 -0.69335,0.29492 l -2,2 c 0.18383,-0.18481 0.43264,-0.29114 0.69335,-0.29492 0.26888,-0.002 0.52722,0.10406 0.7168,0.29492 2.08297,2.08297 1.91155,2.72095 -0.69726,5.18165 0.63771,0.64139 1.30205,1.31574 1.99218,2.00585 l 1.41211,-1.41406 c 0.39097,0.39298 1.027,0.39298 1.41797,0 l 0.11914,-0.11914 2,-2 c 0.39298,-0.39095 0.39298,-1.02701 0,-1.41797 l -1.85547,-1.85351 -2.38867,-2.38282 c -0.18958,-0.19086 -0.44794,-0.29718 -0.7168,-0.29492 z"
             style="color:#000000;font-style:normal;font-variant:normal;font-weight:normal;font-stretch:normal;font-size:medium;line-height:normal;font-family:sans-serif;font-variant-ligatures:normal;font-variant-position:normal;font-variant-caps:normal;font-variant-numeric:normal;font-variant-alternates:normal;font-feature-settings:normal;text-indent:0;text-align:start;text-decoration:none;text-decoration-line:none;text-decoration-style:solid;text-decoration-color:#000000;letter-spacing:normal;word-spacing:normal;text-transform:none;writing-mode:lr-tb;direction:ltr;text-orientation:mixed;dominant-baseline:auto;baseline-shift:baseline;text-anchor:start;white-space:normal;shape-padding:0;clip-rule:nonzero;display:inline;overflow:visible;visibility:visible;opacity:1;isolation:auto;mix-blend-mode:normal;color-interpolation:sRGB;color-interpolation-filters:linearRGB;solid-color:#000000;solid-opacity:1;vector-effect:none;fill:#866d63;fill-opacity:1;fill-rule:nonzero;stroke:none;stroke-width:1.62775862;stroke-linecap:round;stroke-linejoin:round;stroke-miterlimit:4;stroke-dasharray:none;stroke-dashoffset:0;stroke-opacity:1;color-rendering:auto;image-rendering:auto;shape-rendering:auto;text-rendering:auto;enable-background:accumulate" />
        </g>
      </g>
      <g
         id="g2084"
         style="stroke-width:0.81387883">
        <g
           id="g2074"
           style="stroke-width:0.81387883">
          <path
             inkscape:connector-curvature="0"
             id="path1970"
             d="m 47.732422,247.69531 a 0.26460996,0.26460996 0 0 0 -0.263672,0.28711 c 0,0 0.06323,0.76841 -0.0332,1.69922 -0.09644,0.93081 -0.367546,2.00302 -0.949219,2.58984 a 0.26460996,0.26460996 0 0 0 0.1875,0.45118 h 6.890625 a 0.26460996,0.26460996 0 0 0 0.189453,-0.44922 c -0.388073,-0.39727 -0.624114,-0.98846 -0.773437,-1.63086 0.506297,-0.84739 1.332031,-2.28711 1.332031,-2.28711 a 0.26460996,0.26460996 0 0 0 -0.230469,-0.39453 h -0.792969 a 0.26460996,0.26460996 0 0 0 -0.191406,0.082 l -0.333984,0.35351 c 0.0014,-0.12675 -0.0039,-0.42773 -0.0039,-0.42773 a 0.26460996,0.26460996 0 0 0 -0.263672,-0.27344 z"
             style="color:#000000;font-style:normal;font-variant:normal;font-weight:normal;font-stretch:normal;font-size:medium;line-height:normal;font-family:sans-serif;font-variant-ligatures:normal;font-variant-position:normal;font-variant-caps:normal;font-variant-numeric:normal;font-variant-alternates:normal;font-feature-settings:normal;text-indent:0;text-align:start;text-decoration:none;text-decoration-line:none;text-decoration-style:solid;text-decoration-color:#000000;letter-spacing:normal;word-spacing:normal;text-transform:none;writing-mode:lr-tb;direction:ltr;text-orientation:mixed;dominant-baseline:auto;baseline-shift:baseline;text-anchor:start;white-space:normal;shape-padding:0;clip-rule:nonzero;display:inline;overflow:visible;visibility:visible;opacity:1;isolation:auto;mix-blend-mode:normal;color-interpolation:sRGB;color-interpolation-filters:linearRGB;solid-color:#000000;solid-opacity:1;vector-effect:none;fill:#9d8379;fill-opacity:1;fill-rule:nonzero;stroke:none;stroke-width:0.43067783;stroke-linecap:round;stroke-linejoin:round;stroke-miterlimit:4;stroke-dasharray:none;stroke-dashoffset:0;stroke-opacity:1;color-rendering:auto;image-rendering:auto;shape-rendering:auto;text-rendering:auto;enable-background:accumulate" />
          <path
             sodipodi:nodetypes="ccccccccccccccccccccccccc"
             inkscape:connector-curvature="0"
             id="path2003"
             transform="matrix(0.26458333,0,0,0.26458333,0,284.3)"
             d="m 194.41016,-138.34766 c 0.56424,0.002 1.01499,0.46923 0.99609,1.03321 0,0 0.0209,1.13618 0.0156,1.61523 0.31259,3.23872 0.35756,6.25207 1.05355,9.06863 0.77545,2.10778 0.86982,3.28293 -3.83299,3.28293 h -15.35338 c -0.44726,0.87338 -0.96635,1.66393 -1.59179,2.29493 -0.62621,0.63008 -0.18135,1.703 0.70703,1.70507 h 22.04492 4 c 0.9449,0 1.26764,-1.14459 0.71481,-1.69742 -0.16414,-0.16803 -0.31864,-0.34757 -0.46875,-0.5332 -0.10749,-0.13401 -0.2082,-0.2754 -0.30859,-0.41797 -0.0325,-0.0456 -0.0659,-0.0903 -0.0977,-0.13672 -0.25731,-0.38045 -0.49402,-0.78627 -0.70898,-1.21485 h -0.002 c -0.58163,-1.15935 -1.0158,-2.47569 -1.33789,-3.86132 1.91358,-3.20274 5.03516,-8.64454 5.03516,-8.64454 0.37467,-0.66641 -0.10658,-1.48971 -0.87109,-1.49023 h -2.9961 c -0.27358,-5.8e-4 -0.53545,0.11095 -0.72461,0.30859 l -1.26171,1.33594 c 0.005,-0.47905 -0.0156,-1.61523 -0.0156,-1.61523 0.0187,-0.56365 -0.43213,-1.03126 -0.99609,-1.03321 z"
             style="color:#000000;font-style:normal;font-variant:normal;font-weight:normal;font-stretch:normal;font-size:medium;line-height:normal;font-family:sans-serif;font-variant-ligatures:normal;font-variant-position:normal;font-variant-caps:normal;font-variant-numeric:normal;font-variant-alternates:normal;font-feature-settings:normal;text-indent:0;text-align:start;text-decoration:none;text-decoration-line:none;text-decoration-style:solid;text-decoration-color:#000000;letter-spacing:normal;word-spacing:normal;text-transform:none;writing-mode:lr-tb;direction:ltr;text-orientation:mixed;dominant-baseline:auto;baseline-shift:baseline;text-anchor:start;white-space:normal;shape-padding:0;clip-rule:nonzero;display:inline;overflow:visible;visibility:visible;opacity:1;isolation:auto;mix-blend-mode:normal;color-interpolation:sRGB;color-interpolation-filters:linearRGB;solid-color:#000000;solid-opacity:1;vector-effect:none;fill:#8b7065;fill-opacity:1;fill-rule:nonzero;stroke:none;stroke-width:1.62775862;stroke-linecap:round;stroke-linejoin:round;stroke-miterlimit:4;stroke-dasharray:none;stroke-dashoffset:0;stroke-opacity:1;color-rendering:auto;image-rendering:auto;shape-rendering:auto;text-rendering:auto;enable-background:accumulate" />
        </g>
        <path
           style="color:#000000;font-style:normal;font-variant:normal;font-weight:normal;font-stretch:normal;font-size:medium;line-height:normal;font-family:sans-serif;font-variant-ligatures:normal;font-variant-position:normal;font-variant-caps:normal;font-variant-numeric:normal;font-variant-alternates:normal;font-feature-settings:normal;text-indent:0;text-align:start;text-decoration:none;text-decoration-line:none;text-decoration-style:solid;text-decoration-color:#000000;letter-spacing:normal;word-spacing:normal;text-transform:none;writing-mode:lr-tb;direction:ltr;text-orientation:mixed;dominant-baseline:auto;baseline-shift:baseline;text-anchor:start;white-space:normal;shape-padding:0;clip-rule:nonzero;display:inline;overflow:visible;visibility:visible;opacity:1;isolation:auto;mix-blend-mode:normal;color-interpolation:sRGB;color-interpolation-filters:linearRGB;solid-color:#000000;solid-opacity:1;vector-effect:none;fill:#654a45;fill-opacity:1;fill-rule:nonzero;stroke:none;stroke-width:1.62775862;stroke-linecap:round;stroke-linejoin:round;stroke-miterlimit:4;stroke-dasharray:none;stroke-dashoffset:0;stroke-opacity:1;color-rendering:auto;image-rendering:auto;shape-rendering:auto;text-rendering:auto;enable-background:accumulate"
           d="m 182.40625,-138.34766 v 5.15235 a 1.0002463,1.0002463 0 1 0 2,0 v -5.15235 z m 2.3125,0 1.5918,4.10352 -1.80078,3.60156 a 1.0001006,1.0001006 0 0 0 0.29492,1.24805 l 0.59961,0.44922 v 2.59961 a 1.0002444,1.0002444 0 0 0 2,0 v -1.10157 l 1.0039,0.75196 v 0.34961 a 1.0002463,1.0002463 0 1 0 2,0 v -0.51563 l 2.79883,-3.73633 a 1.0001006,1.0001006 0 0 0 0.14649,-0.91406 l -0.91407,-2.74609 0.82032,-4.08985 z m 9.69141,0 v 3.15039 a 1.0002463,1.0002463 0 1 0 2,0 v -3.15039 z m 0.98828,6.13477 a 1.0001006,1.0001006 0 0 0 -0.10352,0.006 1.0001006,1.0001006 0 0 0 -0.88476,1.01172 v 2.99609 a 1.0002463,1.0002463 0 1 0 2,0 v -2.99609 a 1.0001006,1.0001006 0 0 0 -1.01172,-1.01758 z m -2.00782,6 a 1.0001006,1.0001006 0 0 0 -0.98242,1.01953 v 5.8457 h 2.00196 v -5.8457 a 1.0001006,1.0001006 0 0 0 -1.01954,-1.01953 z m -10.99804,1.00391 a 1.0001006,1.0001006 0 0 0 -0.98242,1.01171 v 4.84961 h 2 v -4.84961 a 1.0001006,1.0001006 0 0 0 -1.01758,-1.01171 z m 6.99804,1.8457 a 1.0001006,1.0001006 0 0 0 -0.98242,1.01953 v 2.99609 h 2 v -2.99609 a 1.0001006,1.0001006 0 0 0 -1.01758,-1.01953 z m 8.00196,0.1543 a 1.0001006,1.0001006 0 0 0 -0.98242,1.01171 v 2.84961 h 2 v -2.84961 a 1.0001006,1.0001006 0 0 0 -1.01758,-1.01171 z"
           transform="matrix(0.26458333,0,0,0.26458333,0,284.3)"
           id="path1994"
           inkscape:connector-curvature="0" />
        <path
           style="color:#000000;font-style:normal;font-variant:normal;font-weight:normal;font-stretch:normal;font-size:medium;line-height:normal;font-family:sans-serif;font-variant-ligatures:normal;font-variant-position:normal;font-variant-caps:normal;font-variant-numeric:normal;font-variant-alternates:normal;font-feature-settings:normal;text-indent:0;text-align:start;text-decoration:none;text-decoration-line:none;text-decoration-style:solid;text-decoration-color:#000000;letter-spacing:normal;word-spacing:normal;text-transform:none;writing-mode:lr-tb;direction:ltr;text-orientation:mixed;dominant-baseline:auto;baseline-shift:baseline;text-anchor:start;white-space:normal;shape-padding:0;clip-rule:nonzero;display:inline;overflow:visible;visibility:visible;opacity:1;isolation:auto;mix-blend-mode:normal;color-interpolation:sRGB;color-interpolation-filters:linearRGB;solid-color:#000000;solid-opacity:1;vector-effect:none;fill:#352725;fill-opacity:1;fill-rule:nonzero;stroke:none;stroke-width:1.62775862;stroke-linecap:round;stroke-linejoin:round;stroke-miterlimit:4;stroke-dasharray:none;stroke-dashoffset:0;stroke-opacity:1;color-rendering:auto;image-rendering:auto;shape-rendering:auto;text-rendering:auto;enable-background:accumulate"
           d="m 194.41016,-123.43359 c -0.50155,0.0514 -1.06637,0.0859 -1.76758,0.0859 h -0.23438 v 4 h 2.00196 z m -13,0.0859 v 4 h 2 v -4 z m 7.82617,0 c -0.48579,0.0847 -0.83734,0.51087 -0.82813,1.00391 v 2.99609 h 2 v -2.99609 c 0.01,-0.49179 -0.33998,-0.9175 -0.82422,-1.00391 z m 8.15625,0.13868 c -0.54997,0.01 -0.98889,0.46169 -0.98242,1.01171 v 2.84961 h 2 v -2.84961 c 0.007,-0.56378 -0.45384,-1.0216 -1.01758,-1.01171 z"
           transform="matrix(0.26458333,0,0,0.26458333,0,284.3)"
           id="path2019"
           inkscape:connector-curvature="0"
           sodipodi:nodetypes="cscccccccccccccccccccccc" />
        <path
           style="opacity:1;vector-effect:none;fill:#352725;fill-opacity:1;stroke:none;stroke-width:1.62775755;stroke-linecap:round;stroke-linejoin:round;stroke-miterlimit:4;stroke-dasharray:none;stroke-dashoffset:0;stroke-opacity:1"
           d="m 201.40806,-137.34391 c -0.22454,0 -0.4456,0.017 -0.72399,0.30935 -0.33407,0.35079 -1.16988,1.23729 -1.2623,1.3361 0.1376,2.85236 0.3312,5.69539 0.81846,8.48948 1.91358,-3.20274 5.03516,-8.64454 5.03516,-8.64454 0.37467,-0.66641 -0.10658,-1.48971 -0.87109,-1.49023 -1.00794,0 -1.49819,-1.6e-4 -2.99624,-1.6e-4 z"
           transform="matrix(0.26458333,0,0,0.26458333,0,284.3)"
           id="path2024"
           inkscape:connector-curvature="0"
           sodipodi:nodetypes="csccccc" />
      </g>
    </g>
  </g>
</svg>
